<?xml version="1.0" encoding="utf-8"?>
<!-- Generator: Adobe Illustrator 16.0.0, SVG Export Plug-In . SVG Version: 6.00 Build 0)  -->
<!DOCTYPE svg PUBLIC "-//W3C//DTD SVG 1.1//EN" "http://www.w3.org/Graphics/SVG/1.1/DTD/svg11.dtd">
<svg version="1.1" id="레이어_1" xmlns="http://www.w3.org/2000/svg" xmlns:xlink="http://www.w3.org/1999/xlink" x="0px"
	 y="0px" width="436.346px" height="83.261px" viewBox="0 0 436.346 83.261" enable-background="new 0 0 436.346 83.261"
	 xml:space="preserve">
<g>
	<circle fill="#FFFFFF" stroke="#FFFFFF" stroke-width="0.5" stroke-miterlimit="10" cx="41.997" cy="41.629" r="37.391"/>
	<path fill="#FFFFFF" d="M41.997,83.261c-22.954,0-41.629-18.676-41.629-41.631C0.368,18.675,19.042,0,41.997,0
		s41.629,18.675,41.629,41.629C83.625,64.585,64.951,83.261,41.997,83.261z M41.997,1C19.593,1,1.368,19.226,1.368,41.629
		c0,22.405,18.226,40.631,40.629,40.631s40.629-18.227,40.629-40.631C82.625,19.226,64.4,1,41.997,1z"/>
	<g>
		<g>
			<path fill="#282828" d="M43.797,6.919c-0.004,0.138-0.052,0.248-0.145,0.333c-0.098,0.09-0.218,0.129-0.369,0.123
				c-0.149-0.006-0.267-0.054-0.352-0.151c-0.097-0.092-0.136-0.206-0.13-0.344c0.005-0.132,0.053-0.243,0.157-0.339
				c0.091-0.083,0.213-0.129,0.363-0.124c0.149,0.005,0.267,0.061,0.357,0.152C43.764,6.673,43.803,6.787,43.797,6.919z"/>
			<path fill="#282828" d="M46.509,7.169c-0.017,0.137-0.073,0.244-0.171,0.321c-0.104,0.083-0.227,0.113-0.375,0.095
				c-0.151-0.019-0.265-0.076-0.34-0.179c-0.09-0.099-0.12-0.216-0.104-0.353c0.016-0.131,0.072-0.238,0.183-0.326
				c0.097-0.077,0.222-0.113,0.371-0.095c0.147,0.018,0.261,0.081,0.345,0.179C46.493,6.922,46.524,7.039,46.509,7.169z"/>
			<path fill="#282828" d="M49.19,7.63c-0.027,0.134-0.092,0.237-0.195,0.306C48.883,8.01,48.76,8.03,48.614,8.001
				c-0.15-0.029-0.258-0.096-0.325-0.205c-0.081-0.105-0.104-0.225-0.075-0.36c0.025-0.129,0.09-0.231,0.208-0.311
				c0.102-0.069,0.229-0.095,0.377-0.066s0.255,0.102,0.329,0.206C49.194,7.381,49.215,7.501,49.19,7.63z"/>
			<path fill="#282828" d="M51.828,8.299c-0.036,0.133-0.109,0.23-0.22,0.291c-0.115,0.064-0.241,0.075-0.385,0.035
				c-0.146-0.041-0.249-0.116-0.306-0.229c-0.075-0.113-0.085-0.232-0.05-0.365c0.038-0.127,0.11-0.223,0.232-0.292
				c0.107-0.061,0.237-0.077,0.381-0.036c0.146,0.04,0.247,0.121,0.313,0.23C51.852,8.052,51.864,8.172,51.828,8.299z"/>
			<path fill="#282828" d="M54.399,9.173c-0.045,0.129-0.125,0.22-0.238,0.272c-0.122,0.056-0.247,0.056-0.389,0.004
				c-0.142-0.052-0.238-0.134-0.287-0.252c-0.065-0.117-0.067-0.238-0.02-0.367c0.045-0.124,0.126-0.215,0.254-0.274
				c0.113-0.052,0.242-0.058,0.383-0.005c0.141,0.051,0.235,0.139,0.294,0.254C54.443,8.929,54.446,9.049,54.399,9.173z"/>
			<path fill="#282828" d="M56.907,10.251c-0.059,0.125-0.145,0.208-0.261,0.251c-0.124,0.046-0.251,0.036-0.389-0.027
				c-0.136-0.062-0.226-0.152-0.267-0.274c-0.053-0.122-0.047-0.242,0.011-0.368c0.056-0.12,0.142-0.204,0.275-0.253
				c0.117-0.042,0.245-0.039,0.382,0.024c0.137,0.063,0.223,0.158,0.273,0.278C56.971,10.01,56.961,10.132,56.907,10.251z"/>
			<path fill="#282828" d="M59.311,11.518c-0.066,0.121-0.16,0.197-0.28,0.232c-0.127,0.036-0.253,0.016-0.385-0.058
				c-0.13-0.073-0.213-0.17-0.243-0.294c-0.045-0.126-0.029-0.246,0.04-0.366c0.063-0.115,0.156-0.192,0.294-0.23
				c0.119-0.033,0.247-0.02,0.379,0.054c0.132,0.073,0.21,0.176,0.249,0.297C59.392,11.284,59.376,11.403,59.311,11.518z"/>
			<path fill="#282828" d="M61.61,12.97c-0.076,0.115-0.174,0.185-0.297,0.209c-0.13,0.025-0.254-0.004-0.379-0.087
				c-0.125-0.084-0.199-0.186-0.22-0.313c-0.036-0.129-0.01-0.247,0.067-0.362c0.073-0.109,0.171-0.179,0.311-0.206
				c0.123-0.024,0.249,0,0.375,0.083c0.124,0.083,0.195,0.191,0.226,0.316C61.708,12.743,61.683,12.86,61.61,12.97z"/>
			<path fill="#282828" d="M63.792,14.601c-0.086,0.107-0.189,0.169-0.313,0.184c-0.132,0.016-0.253-0.023-0.371-0.117
				c-0.118-0.092-0.185-0.201-0.194-0.329c-0.025-0.13,0.01-0.247,0.096-0.354c0.08-0.104,0.186-0.165,0.326-0.182
				c0.123-0.015,0.248,0.02,0.365,0.113c0.118,0.093,0.181,0.206,0.199,0.333C63.907,14.381,63.872,14.497,63.792,14.601z"/>
			<path fill="#282828" d="M65.84,16.394c-0.094,0.102-0.202,0.156-0.326,0.16c-0.134,0.005-0.251-0.043-0.361-0.145
				c-0.11-0.102-0.168-0.215-0.168-0.343c-0.016-0.132,0.029-0.245,0.121-0.346c0.09-0.097,0.198-0.15,0.341-0.156
				c0.122-0.005,0.245,0.039,0.355,0.14c0.11,0.103,0.163,0.22,0.175,0.348C65.973,16.185,65.928,16.297,65.84,16.394z"/>
			<path fill="#282828" d="M67.738,18.337c-0.102,0.094-0.213,0.139-0.337,0.134c-0.133-0.005-0.246-0.062-0.348-0.173
				c-0.104-0.109-0.152-0.227-0.144-0.355c-0.003-0.132,0.049-0.242,0.149-0.336c0.098-0.09,0.209-0.134,0.352-0.129
				c0.123,0.004,0.241,0.057,0.343,0.167c0.103,0.11,0.148,0.231,0.147,0.36C67.887,18.138,67.834,18.248,67.738,18.337z"/>
			<path fill="#282828" d="M69.485,20.428c-0.107,0.085-0.225,0.121-0.349,0.107c-0.131-0.015-0.239-0.081-0.333-0.199
				c-0.095-0.118-0.133-0.238-0.115-0.365c0.007-0.132,0.068-0.238,0.177-0.323c0.103-0.082,0.22-0.118,0.359-0.102
				c0.124,0.014,0.236,0.076,0.33,0.194c0.093,0.118,0.128,0.242,0.118,0.371C69.649,20.242,69.587,20.346,69.485,20.428z"/>
			<path fill="#282828" d="M71.061,22.646c-0.116,0.078-0.232,0.104-0.355,0.08c-0.13-0.024-0.234-0.099-0.316-0.224
				c-0.085-0.125-0.115-0.248-0.086-0.373c0.017-0.131,0.086-0.232,0.201-0.309c0.108-0.073,0.227-0.101,0.365-0.073
				c0.121,0.023,0.229,0.095,0.314,0.219c0.083,0.125,0.108,0.251,0.089,0.378C71.239,22.474,71.17,22.573,71.061,22.646z"/>
			<path fill="#282828" d="M72.457,24.979c-0.12,0.069-0.239,0.086-0.359,0.052c-0.128-0.035-0.226-0.118-0.299-0.248
				c-0.074-0.131-0.094-0.256-0.056-0.379c0.027-0.13,0.104-0.224,0.223-0.292c0.116-0.064,0.235-0.082,0.371-0.044
				c0.12,0.033,0.223,0.113,0.297,0.243c0.074,0.131,0.09,0.259,0.059,0.384C72.648,24.821,72.571,24.915,72.457,24.979z"/>
			<path fill="#282828" d="M73.668,27.42c-0.125,0.058-0.246,0.065-0.363,0.023c-0.123-0.045-0.215-0.135-0.277-0.271
				c-0.063-0.136-0.073-0.263-0.025-0.383c0.036-0.127,0.121-0.215,0.245-0.273c0.12-0.055,0.241-0.063,0.374-0.015
				c0.116,0.042,0.213,0.13,0.275,0.266c0.064,0.137,0.069,0.265,0.03,0.388C73.872,27.277,73.789,27.364,73.668,27.42z"/>
			<path fill="#282828" d="M74.684,29.943c-0.129,0.048-0.25,0.046-0.362-0.005c-0.122-0.055-0.204-0.151-0.257-0.292
				s-0.053-0.268,0.004-0.383c0.047-0.124,0.139-0.205,0.267-0.253c0.124-0.046,0.245-0.044,0.374,0.015
				c0.112,0.051,0.201,0.146,0.254,0.287c0.053,0.141,0.047,0.27-0.002,0.388C74.898,29.817,74.808,29.897,74.684,29.943z"/>
			<path fill="#282828" d="M75.498,32.541c-0.134,0.038-0.254,0.026-0.362-0.034c-0.115-0.064-0.189-0.167-0.233-0.311
				c-0.041-0.145-0.032-0.271,0.034-0.382c0.059-0.12,0.155-0.193,0.288-0.231c0.126-0.036,0.247-0.025,0.37,0.044
				c0.107,0.06,0.188,0.161,0.231,0.306c0.041,0.144,0.025,0.273-0.033,0.387C75.719,32.431,75.624,32.505,75.498,32.541z"/>
			<path fill="#282828" d="M76.106,35.192c-0.138,0.027-0.257,0.008-0.359-0.062c-0.111-0.073-0.179-0.181-0.208-0.329
				c-0.028-0.147-0.009-0.272,0.063-0.377c0.066-0.115,0.17-0.182,0.305-0.209c0.128-0.025,0.248-0.005,0.366,0.074
				c0.104,0.067,0.177,0.174,0.206,0.322c0.031,0.147,0.004,0.273-0.063,0.384C76.334,35.101,76.234,35.167,76.106,35.192z"/>
			<path fill="#282828" d="M76.5,37.887c-0.139,0.018-0.254-0.013-0.352-0.089c-0.105-0.082-0.163-0.194-0.182-0.345
				c-0.019-0.148,0.011-0.272,0.095-0.371c0.075-0.109,0.182-0.166,0.316-0.184c0.132-0.016,0.248,0.014,0.36,0.102
				c0.098,0.076,0.162,0.188,0.18,0.337c0.019,0.149-0.016,0.274-0.092,0.378C76.737,37.815,76.631,37.872,76.5,37.887z"/>
			<path fill="#282828" d="M76.685,40.602c-0.138,0.006-0.254-0.033-0.345-0.117c-0.097-0.09-0.146-0.207-0.153-0.357
				c-0.005-0.149,0.032-0.27,0.123-0.362c0.082-0.104,0.194-0.152,0.33-0.159c0.133-0.005,0.247,0.034,0.352,0.13
				c0.092,0.083,0.146,0.2,0.152,0.351c0.007,0.15-0.038,0.271-0.122,0.369C76.926,40.547,76.814,40.596,76.685,40.602z"/>
			<path fill="#282828" d="M76.66,43.321c-0.138-0.004-0.249-0.051-0.333-0.143c-0.09-0.097-0.131-0.217-0.125-0.367
				c0.004-0.15,0.052-0.268,0.149-0.354c0.089-0.096,0.205-0.136,0.342-0.131c0.134,0.004,0.244,0.051,0.34,0.155
				c0.085,0.091,0.132,0.211,0.126,0.361c-0.007,0.151-0.059,0.268-0.148,0.358C76.905,43.286,76.792,43.327,76.66,43.321z"/>
			<path fill="#282828" d="M76.424,46.03c-0.137-0.016-0.242-0.072-0.32-0.168c-0.084-0.104-0.114-0.229-0.098-0.377
				s0.074-0.264,0.178-0.34c0.098-0.09,0.215-0.121,0.352-0.105c0.13,0.016,0.237,0.07,0.328,0.182
				c0.075,0.098,0.112,0.221,0.096,0.371c-0.017,0.148-0.08,0.262-0.177,0.346C76.672,46.015,76.556,46.044,76.424,46.03z"/>
			<path fill="#282828" d="M75.979,48.718c-0.135-0.027-0.238-0.092-0.308-0.193c-0.074-0.111-0.095-0.236-0.066-0.385
				c0.028-0.146,0.095-0.256,0.203-0.324c0.104-0.082,0.224-0.104,0.359-0.078c0.128,0.025,0.231,0.09,0.312,0.207
				c0.069,0.104,0.098,0.23,0.068,0.377s-0.102,0.256-0.205,0.332C76.227,48.72,76.11,48.741,75.979,48.718z"/>
			<path fill="#282828" d="M75.321,51.358c-0.132-0.037-0.229-0.109-0.291-0.217c-0.064-0.115-0.076-0.242-0.035-0.387
				c0.039-0.145,0.113-0.248,0.227-0.307c0.111-0.074,0.232-0.086,0.365-0.051c0.127,0.035,0.225,0.107,0.294,0.23
				c0.061,0.107,0.078,0.236,0.038,0.381s-0.119,0.246-0.23,0.314C75.568,51.382,75.45,51.394,75.321,51.358z"/>
			<path fill="#282828" d="M74.461,53.938c-0.129-0.047-0.221-0.127-0.273-0.24c-0.056-0.121-0.057-0.246-0.007-0.387
				c0.054-0.143,0.134-0.24,0.252-0.291c0.117-0.064,0.237-0.066,0.367-0.02c0.124,0.045,0.214,0.125,0.275,0.252
				c0.052,0.113,0.06,0.242,0.008,0.383c-0.05,0.143-0.138,0.236-0.252,0.295C74.707,53.979,74.586,53.981,74.461,53.938z"/>
			<path fill="#282828" d="M73.399,56.444c-0.127-0.057-0.211-0.145-0.254-0.26c-0.047-0.125-0.037-0.25,0.024-0.389
				c0.062-0.137,0.151-0.227,0.274-0.268c0.12-0.055,0.241-0.049,0.365,0.01c0.121,0.053,0.206,0.141,0.256,0.271
				c0.043,0.117,0.039,0.246-0.023,0.383c-0.062,0.137-0.156,0.225-0.275,0.273C73.64,56.505,73.518,56.499,73.399,56.444z"/>
			<path fill="#282828" d="M72.144,58.856c-0.12-0.066-0.198-0.16-0.232-0.279c-0.037-0.129-0.017-0.254,0.056-0.385
				c0.073-0.131,0.169-0.215,0.292-0.246c0.126-0.045,0.245-0.027,0.366,0.039c0.115,0.063,0.194,0.154,0.231,0.291
				c0.035,0.119,0.021,0.248-0.051,0.381c-0.073,0.131-0.176,0.211-0.297,0.25C72.379,58.937,72.259,58.919,72.144,58.856z"/>
			<path fill="#282828" d="M70.704,61.165c-0.114-0.076-0.186-0.176-0.211-0.297c-0.027-0.131,0.004-0.254,0.086-0.379
				c0.084-0.125,0.185-0.201,0.312-0.223c0.128-0.035,0.246-0.01,0.362,0.064c0.108,0.072,0.179,0.172,0.208,0.311
				c0.024,0.121,0,0.25-0.082,0.375s-0.19,0.197-0.314,0.229C70.932,61.263,70.813,61.235,70.704,61.165z"/>
			<path fill="#282828" d="M69.085,63.354c-0.108-0.084-0.171-0.188-0.187-0.311c-0.016-0.133,0.021-0.254,0.114-0.373
				c0.094-0.117,0.2-0.186,0.329-0.197c0.131-0.025,0.246,0.01,0.355,0.094c0.104,0.082,0.166,0.186,0.185,0.326
				c0.016,0.123-0.019,0.248-0.11,0.365c-0.092,0.121-0.207,0.184-0.332,0.203C69.307,63.472,69.189,63.437,69.085,63.354z"/>
			<path fill="#282828" d="M67.306,65.407c-0.101-0.092-0.156-0.201-0.162-0.324c-0.005-0.133,0.043-0.25,0.144-0.361
				s0.214-0.17,0.342-0.172c0.133-0.016,0.246,0.029,0.348,0.121c0.097,0.09,0.15,0.197,0.157,0.34
				c0.006,0.123-0.036,0.246-0.139,0.355c-0.1,0.111-0.216,0.166-0.346,0.176C67.517,65.54,67.403,65.497,67.306,65.407z"/>
			<path fill="#282828" d="M65.369,67.319c-0.094-0.1-0.14-0.213-0.136-0.336c0.005-0.133,0.063-0.246,0.17-0.35
				c0.111-0.104,0.228-0.152,0.354-0.143c0.134-0.006,0.242,0.047,0.338,0.146c0.089,0.096,0.135,0.207,0.129,0.35
				c-0.002,0.125-0.055,0.242-0.164,0.344c-0.11,0.104-0.23,0.15-0.36,0.15C65.569,67.468,65.458,67.417,65.369,67.319z"/>
			<path fill="#282828" d="M63.286,69.075c-0.086-0.104-0.124-0.221-0.108-0.344c0.014-0.133,0.081-0.242,0.197-0.336
				c0.117-0.094,0.237-0.135,0.365-0.115c0.132,0.006,0.237,0.066,0.323,0.174c0.083,0.104,0.119,0.217,0.104,0.359
				c-0.014,0.123-0.074,0.236-0.192,0.332c-0.116,0.094-0.241,0.129-0.369,0.117C63.472,69.241,63.37,69.181,63.286,69.075z"/>
			<path fill="#282828" d="M61.082,70.663c-0.079-0.115-0.105-0.232-0.083-0.354c0.027-0.131,0.1-0.234,0.224-0.32
				c0.124-0.084,0.247-0.115,0.372-0.088c0.133,0.016,0.233,0.086,0.311,0.199c0.074,0.109,0.102,0.227,0.074,0.367
				c-0.021,0.121-0.092,0.23-0.217,0.314c-0.124,0.084-0.251,0.109-0.379,0.092C61.255,70.839,61.156,70.771,61.082,70.663z"/>
			<path fill="#282828" d="M58.75,72.073c-0.067-0.119-0.086-0.24-0.053-0.359c0.035-0.129,0.117-0.227,0.246-0.301
				c0.131-0.074,0.257-0.096,0.379-0.057c0.13,0.027,0.225,0.102,0.294,0.223c0.063,0.113,0.083,0.232,0.046,0.371
				c-0.033,0.119-0.111,0.221-0.243,0.295c-0.129,0.074-0.257,0.092-0.383,0.063C58.912,72.263,58.817,72.188,58.75,72.073z"/>
			<path fill="#282828" d="M56.321,73.298c-0.06-0.125-0.068-0.246-0.026-0.361c0.045-0.127,0.134-0.217,0.271-0.281
				c0.136-0.063,0.261-0.074,0.382-0.027c0.127,0.037,0.215,0.119,0.274,0.244c0.055,0.119,0.064,0.24,0.018,0.373
				c-0.044,0.117-0.13,0.213-0.264,0.277c-0.137,0.064-0.267,0.07-0.389,0.031C56.465,73.501,56.375,73.417,56.321,73.298z"/>
			<path fill="#282828" d="M53.795,74.329c-0.048-0.129-0.047-0.25,0.004-0.365c0.055-0.119,0.15-0.203,0.291-0.256
				c0.143-0.055,0.268-0.055,0.384,0.002c0.124,0.047,0.205,0.137,0.255,0.266c0.047,0.123,0.046,0.244-0.013,0.373
				c-0.052,0.113-0.146,0.201-0.285,0.256c-0.141,0.053-0.271,0.049-0.389,0C53.924,74.542,53.844,74.45,53.795,74.329z"/>
			<path fill="#282828" d="M51.206,75.155c-0.039-0.133-0.027-0.254,0.031-0.361c0.064-0.117,0.166-0.193,0.311-0.234
				c0.145-0.043,0.271-0.033,0.383,0.031c0.12,0.057,0.193,0.152,0.23,0.285c0.037,0.125,0.027,0.248-0.041,0.369
				c-0.06,0.111-0.16,0.191-0.304,0.234c-0.145,0.043-0.272,0.027-0.388-0.031C51.315,75.378,51.243,75.28,51.206,75.155z"/>
			<path fill="#282828" d="M48.557,75.774c-0.027-0.135-0.008-0.254,0.061-0.357c0.073-0.111,0.181-0.178,0.328-0.209
				s0.271-0.012,0.377,0.063c0.116,0.064,0.183,0.166,0.21,0.303c0.027,0.127,0.008,0.246-0.07,0.365
				c-0.068,0.104-0.175,0.178-0.321,0.207c-0.148,0.031-0.274,0.006-0.385-0.061C48.651,76.005,48.584,75.903,48.557,75.774z"/>
			<path fill="#282828" d="M45.866,76.185c-0.017-0.137,0.012-0.254,0.09-0.354c0.08-0.104,0.193-0.162,0.342-0.182
				c0.149-0.018,0.273,0.01,0.373,0.092c0.109,0.074,0.167,0.18,0.184,0.318c0.018,0.131-0.012,0.248-0.098,0.359
				c-0.078,0.098-0.188,0.162-0.338,0.182c-0.148,0.02-0.274-0.016-0.378-0.09C45.94,76.421,45.882,76.315,45.866,76.185z"/>
			<path fill="#282828" d="M43.157,76.386c-0.007-0.139,0.031-0.252,0.115-0.346c0.09-0.1,0.207-0.148,0.355-0.156
				c0.151-0.006,0.271,0.031,0.363,0.121c0.106,0.082,0.155,0.193,0.162,0.33c0.006,0.133-0.032,0.246-0.127,0.352
				c-0.086,0.094-0.2,0.148-0.352,0.156c-0.149,0.008-0.271-0.037-0.371-0.119C43.212,76.626,43.163,76.517,43.157,76.386z"/>
		</g>
		<g>
			<path fill="#282828" d="M40.313,6.569c0.092-0.091,0.209-0.146,0.357-0.152c0.15-0.005,0.272,0.04,0.363,0.124
				c0.104,0.096,0.151,0.208,0.157,0.339c0.006,0.138-0.033,0.252-0.13,0.344c-0.085,0.098-0.202,0.146-0.354,0.151
				c-0.149,0.006-0.27-0.033-0.368-0.123c-0.091-0.085-0.14-0.195-0.144-0.333C40.19,6.787,40.229,6.673,40.313,6.569z"/>
			<path fill="#282828" d="M37.575,6.812c0.084-0.098,0.195-0.161,0.345-0.179s0.274,0.019,0.372,0.095
				c0.111,0.088,0.167,0.195,0.183,0.326c0.017,0.136-0.014,0.253-0.103,0.353c-0.077,0.103-0.19,0.16-0.342,0.179
				c-0.147,0.018-0.271-0.012-0.375-0.095c-0.097-0.077-0.154-0.184-0.171-0.321C37.468,7.039,37.5,6.922,37.575,6.812z"/>
			<path fill="#282828" d="M34.865,7.266c0.075-0.104,0.184-0.177,0.331-0.206c0.148-0.029,0.273-0.003,0.377,0.066
				c0.116,0.08,0.182,0.181,0.207,0.311c0.028,0.135,0.006,0.254-0.074,0.36c-0.068,0.109-0.177,0.176-0.324,0.205
				s-0.272,0.009-0.383-0.065c-0.104-0.069-0.168-0.172-0.195-0.306C34.778,7.501,34.798,7.381,34.865,7.266z"/>
			<path fill="#282828" d="M32.199,7.932c0.067-0.109,0.169-0.19,0.313-0.23c0.146-0.041,0.274-0.024,0.382,0.036
				c0.122,0.069,0.195,0.166,0.232,0.292c0.037,0.133,0.025,0.252-0.049,0.365c-0.058,0.113-0.161,0.188-0.305,0.229
				c-0.146,0.04-0.272,0.03-0.389-0.035c-0.108-0.061-0.181-0.158-0.218-0.291C32.131,8.172,32.141,8.052,32.199,7.932z"/>
			<path fill="#282828" d="M29.597,8.805c0.059-0.115,0.153-0.204,0.294-0.254c0.142-0.053,0.271-0.047,0.383,0.005
				c0.129,0.06,0.209,0.15,0.255,0.274c0.047,0.129,0.045,0.25-0.019,0.367c-0.051,0.118-0.147,0.201-0.289,0.252
				c-0.141,0.052-0.267,0.052-0.388-0.004c-0.112-0.052-0.194-0.143-0.239-0.272C29.548,9.049,29.55,8.929,29.597,8.805z"/>
			<path fill="#282828" d="M27.063,9.883c0.049-0.12,0.135-0.214,0.271-0.278c0.138-0.063,0.267-0.066,0.384-0.024
				c0.133,0.049,0.22,0.133,0.274,0.253c0.058,0.126,0.065,0.246,0.012,0.368c-0.042,0.122-0.131,0.212-0.268,0.274
				c-0.137,0.063-0.265,0.073-0.389,0.027c-0.115-0.043-0.202-0.127-0.261-0.251C27.032,10.132,27.024,10.01,27.063,9.883z"/>
			<path fill="#282828" d="M24.628,11.153c0.039-0.122,0.119-0.224,0.251-0.297c0.13-0.074,0.258-0.087,0.378-0.054
				c0.137,0.038,0.23,0.115,0.294,0.23c0.068,0.12,0.085,0.24,0.039,0.366c-0.029,0.124-0.112,0.221-0.243,0.294
				c-0.132,0.074-0.258,0.094-0.386,0.058c-0.119-0.035-0.213-0.111-0.279-0.232C24.617,11.403,24.601,11.284,24.628,11.153z"/>
			<path fill="#282828" d="M22.302,12.61c0.028-0.125,0.101-0.233,0.226-0.316c0.124-0.083,0.251-0.107,0.373-0.083
				c0.141,0.027,0.237,0.097,0.311,0.206c0.078,0.115,0.104,0.233,0.068,0.362c-0.02,0.127-0.096,0.229-0.22,0.313
				c-0.126,0.083-0.249,0.112-0.38,0.087c-0.123-0.024-0.22-0.094-0.297-0.209C22.311,12.86,22.285,12.743,22.302,12.61z"/>
			<path fill="#282828" d="M20.093,14.248c0.02-0.127,0.082-0.24,0.2-0.333s0.242-0.127,0.367-0.113
				c0.14,0.018,0.244,0.079,0.324,0.182c0.086,0.108,0.122,0.224,0.098,0.354c-0.012,0.128-0.078,0.237-0.196,0.329
				c-0.118,0.093-0.239,0.132-0.37,0.117c-0.123-0.015-0.229-0.077-0.313-0.184C20.122,14.497,20.086,14.381,20.093,14.248z"/>
			<path fill="#282828" d="M18.016,16.052c0.012-0.128,0.065-0.246,0.176-0.348c0.11-0.101,0.23-0.146,0.356-0.14
				c0.141,0.006,0.249,0.059,0.339,0.156c0.093,0.101,0.137,0.214,0.122,0.346c-0.001,0.128-0.058,0.241-0.168,0.343
				c-0.11,0.102-0.229,0.15-0.361,0.145c-0.124-0.004-0.232-0.058-0.326-0.16C18.065,16.297,18.02,16.185,18.016,16.052z"/>
			<path fill="#282828" d="M16.092,18.006c0-0.128,0.045-0.25,0.147-0.36s0.22-0.164,0.344-0.167
				c0.142-0.005,0.255,0.039,0.352,0.129c0.101,0.094,0.152,0.204,0.149,0.336c0.009,0.128-0.04,0.246-0.143,0.355
				c-0.104,0.111-0.215,0.168-0.348,0.173c-0.125,0.005-0.237-0.04-0.338-0.134C16.159,18.248,16.106,18.138,16.092,18.006z"/>
			<path fill="#282828" d="M14.321,20.111c-0.01-0.129,0.025-0.252,0.118-0.371c0.094-0.118,0.208-0.18,0.33-0.194
				c0.141-0.017,0.257,0.02,0.36,0.102c0.107,0.085,0.169,0.19,0.176,0.323c0.02,0.127-0.021,0.248-0.115,0.365
				c-0.093,0.119-0.201,0.184-0.333,0.199c-0.124,0.014-0.239-0.021-0.349-0.107C14.406,20.346,14.346,20.242,14.321,20.111z"/>
			<path fill="#282828" d="M12.721,22.346c-0.02-0.127,0.006-0.254,0.089-0.378c0.084-0.125,0.192-0.196,0.313-0.219
				c0.139-0.028,0.257,0,0.367,0.073c0.113,0.077,0.183,0.178,0.199,0.309c0.029,0.125,0,0.248-0.086,0.373
				c-0.082,0.125-0.186,0.199-0.316,0.224c-0.121,0.024-0.24-0.002-0.354-0.08C12.825,22.573,12.756,22.474,12.721,22.346z"/>
			<path fill="#282828" d="M11.302,24.696c-0.03-0.125-0.017-0.253,0.059-0.384c0.074-0.13,0.176-0.21,0.296-0.243
				c0.138-0.038,0.255-0.021,0.371,0.044c0.12,0.069,0.197,0.162,0.223,0.292c0.038,0.123,0.019,0.248-0.056,0.379
				c-0.073,0.13-0.169,0.213-0.299,0.248c-0.119,0.034-0.238,0.017-0.359-0.052C11.422,24.915,11.346,24.821,11.302,24.696z"/>
			<path fill="#282828" d="M10.067,27.155c-0.041-0.123-0.035-0.251,0.029-0.388c0.063-0.136,0.159-0.223,0.275-0.266
				c0.133-0.048,0.254-0.041,0.373,0.015c0.125,0.058,0.21,0.146,0.247,0.273c0.047,0.12,0.037,0.247-0.026,0.383
				c-0.063,0.136-0.152,0.226-0.279,0.271c-0.115,0.042-0.236,0.035-0.362-0.023C10.206,27.364,10.122,27.277,10.067,27.155z"/>
			<path fill="#282828" d="M9.033,29.699c-0.05-0.119-0.056-0.248-0.003-0.388c0.054-0.141,0.142-0.235,0.254-0.287
				c0.13-0.059,0.251-0.061,0.374-0.015c0.13,0.048,0.22,0.129,0.267,0.253c0.058,0.115,0.057,0.242,0.005,0.383
				c-0.053,0.141-0.136,0.237-0.257,0.292c-0.113,0.051-0.234,0.053-0.363,0.005C9.185,29.897,9.096,29.817,9.033,29.699z"/>
			<path fill="#282828" d="M8.202,32.319c-0.06-0.114-0.074-0.243-0.033-0.387c0.043-0.145,0.123-0.246,0.231-0.306
				c0.124-0.069,0.245-0.08,0.369-0.044c0.133,0.038,0.229,0.111,0.288,0.231c0.066,0.111,0.075,0.237,0.033,0.382
				c-0.04,0.144-0.117,0.247-0.232,0.311c-0.108,0.061-0.228,0.072-0.361,0.034C8.371,32.505,8.274,32.431,8.202,32.319z"/>
			<path fill="#282828" d="M7.577,34.996c-0.066-0.11-0.092-0.236-0.063-0.384c0.031-0.148,0.104-0.255,0.206-0.322
				c0.118-0.079,0.238-0.1,0.366-0.074c0.137,0.027,0.238,0.094,0.305,0.209c0.074,0.104,0.093,0.229,0.064,0.377
				c-0.03,0.148-0.097,0.256-0.209,0.329c-0.103,0.069-0.222,0.089-0.358,0.062C7.759,35.167,7.659,35.101,7.577,34.996z"/>
			<path fill="#282828" d="M7.167,37.715c-0.077-0.104-0.112-0.229-0.093-0.378c0.018-0.149,0.083-0.261,0.18-0.337
				c0.111-0.088,0.23-0.117,0.36-0.102c0.136,0.018,0.243,0.074,0.318,0.184c0.082,0.099,0.111,0.223,0.093,0.371
				c-0.019,0.15-0.075,0.263-0.18,0.345c-0.099,0.076-0.215,0.106-0.353,0.089C7.362,37.872,7.257,37.815,7.167,37.715z"/>
			<path fill="#282828" d="M6.969,40.456c-0.082-0.098-0.127-0.219-0.121-0.369c0.007-0.15,0.063-0.268,0.153-0.351
				c0.104-0.096,0.22-0.135,0.352-0.13c0.138,0.007,0.248,0.055,0.331,0.159c0.09,0.093,0.129,0.213,0.123,0.362
				c-0.008,0.15-0.057,0.268-0.154,0.357c-0.091,0.084-0.207,0.123-0.344,0.117C7.177,40.596,7.069,40.547,6.969,40.456z"/>
			<path fill="#282828" d="M6.985,43.202c-0.091-0.091-0.145-0.207-0.15-0.358c-0.006-0.15,0.041-0.271,0.126-0.361
				c0.095-0.104,0.208-0.151,0.34-0.155c0.138-0.005,0.252,0.035,0.342,0.131c0.098,0.086,0.146,0.203,0.149,0.354
				c0.008,0.15-0.035,0.271-0.125,0.367c-0.084,0.092-0.195,0.139-0.333,0.143C7.202,43.327,7.088,43.286,6.985,43.202z"/>
			<path fill="#282828" d="M7.21,45.938c-0.096-0.084-0.159-0.197-0.177-0.346c-0.016-0.15,0.021-0.273,0.097-0.371
				c0.09-0.111,0.196-0.166,0.327-0.182c0.138-0.016,0.254,0.016,0.352,0.105c0.104,0.076,0.162,0.191,0.178,0.34
				c0.017,0.148-0.014,0.273-0.097,0.377c-0.077,0.096-0.185,0.152-0.321,0.168C7.438,46.044,7.321,46.015,7.21,45.938z"/>
			<path fill="#282828" d="M7.652,48.653c-0.104-0.076-0.177-0.186-0.206-0.332c-0.027-0.146,0-0.273,0.069-0.377
				c0.079-0.117,0.183-0.182,0.312-0.207c0.135-0.025,0.254-0.004,0.359,0.078c0.108,0.068,0.175,0.178,0.203,0.324
				c0.028,0.148,0.008,0.273-0.066,0.385c-0.069,0.102-0.173,0.166-0.309,0.193C7.886,48.741,7.766,48.72,7.652,48.653z"/>
			<path fill="#282828" d="M8.304,51.323c-0.108-0.068-0.189-0.17-0.229-0.314s-0.022-0.273,0.038-0.381
				c0.071-0.123,0.168-0.195,0.294-0.23c0.133-0.035,0.255-0.023,0.365,0.051c0.113,0.059,0.188,0.162,0.227,0.307
				c0.041,0.145,0.031,0.271-0.035,0.387c-0.062,0.107-0.159,0.18-0.29,0.217C8.545,51.394,8.425,51.382,8.304,51.323z"/>
			<path fill="#282828" d="M9.163,53.931c-0.113-0.059-0.201-0.152-0.252-0.295c-0.053-0.141-0.046-0.27,0.008-0.383
				c0.061-0.127,0.15-0.207,0.274-0.252c0.13-0.047,0.251-0.045,0.366,0.02c0.119,0.051,0.2,0.148,0.253,0.291
				c0.05,0.141,0.05,0.266-0.006,0.387c-0.054,0.113-0.144,0.193-0.274,0.24C9.408,53.981,9.288,53.979,9.163,53.931z"/>
			<path fill="#282828" d="M10.228,56.466c-0.12-0.049-0.214-0.137-0.276-0.273c-0.062-0.137-0.066-0.266-0.022-0.383
				c0.05-0.131,0.134-0.219,0.254-0.271c0.125-0.059,0.247-0.064,0.368-0.01c0.121,0.041,0.211,0.131,0.273,0.268
				c0.061,0.139,0.071,0.264,0.023,0.389c-0.043,0.115-0.127,0.203-0.252,0.26C10.475,56.499,10.353,56.505,10.228,56.466z"/>
			<path fill="#282828" d="M11.484,58.907c-0.122-0.039-0.224-0.119-0.296-0.25c-0.072-0.133-0.087-0.262-0.053-0.381
				c0.039-0.137,0.117-0.229,0.232-0.291c0.12-0.066,0.24-0.084,0.366-0.039c0.125,0.031,0.22,0.115,0.294,0.246
				c0.072,0.131,0.092,0.256,0.055,0.385c-0.034,0.119-0.113,0.213-0.234,0.279C11.734,58.919,11.614,58.937,11.484,58.907z"/>
			<path fill="#282828" d="M12.93,61.245c-0.124-0.031-0.232-0.104-0.315-0.229c-0.082-0.125-0.105-0.254-0.081-0.375
				c0.028-0.139,0.1-0.238,0.207-0.311c0.117-0.074,0.234-0.1,0.363-0.064c0.126,0.021,0.229,0.098,0.311,0.223
				c0.084,0.125,0.111,0.248,0.086,0.379c-0.025,0.121-0.096,0.221-0.21,0.297C13.181,61.235,13.061,61.263,12.93,61.245z"/>
			<path fill="#282828" d="M14.554,63.462c-0.126-0.02-0.237-0.082-0.333-0.203c-0.091-0.117-0.126-0.242-0.109-0.365
				c0.019-0.141,0.08-0.244,0.184-0.326c0.109-0.084,0.225-0.119,0.355-0.094c0.129,0.012,0.235,0.08,0.328,0.197
				c0.093,0.119,0.132,0.24,0.115,0.373c-0.016,0.123-0.078,0.227-0.187,0.311C14.804,63.437,14.688,63.472,14.554,63.462z"/>
			<path fill="#282828" d="M16.343,65.542c-0.129-0.01-0.245-0.064-0.346-0.176c-0.102-0.109-0.145-0.232-0.139-0.355
				c0.007-0.143,0.062-0.25,0.157-0.34c0.102-0.092,0.216-0.137,0.348-0.121c0.127,0.002,0.241,0.061,0.342,0.172
				c0.102,0.111,0.15,0.229,0.143,0.361c-0.004,0.123-0.06,0.232-0.16,0.324C16.59,65.497,16.477,65.54,16.343,65.542z"/>
			<path fill="#282828" d="M18.292,67.481c-0.127,0-0.248-0.047-0.357-0.15c-0.108-0.102-0.161-0.219-0.166-0.344
				c-0.004-0.143,0.041-0.254,0.13-0.35c0.097-0.1,0.204-0.152,0.338-0.146c0.128-0.01,0.245,0.039,0.355,0.143
				c0.107,0.104,0.165,0.217,0.169,0.35c0.006,0.123-0.041,0.236-0.136,0.336C18.535,67.417,18.424,67.468,18.292,67.481z"/>
			<path fill="#282828" d="M20.389,69.263c-0.129,0.012-0.253-0.023-0.369-0.117c-0.119-0.096-0.18-0.209-0.193-0.332
				c-0.015-0.143,0.02-0.256,0.104-0.359c0.087-0.107,0.191-0.168,0.324-0.174c0.127-0.02,0.248,0.021,0.365,0.115
				c0.118,0.094,0.182,0.203,0.196,0.336c0.016,0.123-0.022,0.24-0.108,0.344C20.625,69.181,20.521,69.241,20.389,69.263z"/>
			<path fill="#282828" d="M22.611,70.874c-0.129,0.018-0.255-0.008-0.379-0.092c-0.126-0.084-0.195-0.193-0.218-0.314
				c-0.027-0.141,0-0.258,0.074-0.367c0.078-0.113,0.178-0.184,0.31-0.199c0.126-0.027,0.249,0.004,0.373,0.088
				c0.124,0.086,0.199,0.189,0.223,0.32c0.023,0.121-0.004,0.238-0.081,0.354C22.837,70.771,22.739,70.839,22.611,70.874z"/>
			<path fill="#282828" d="M24.957,72.308c-0.124,0.029-0.252,0.012-0.383-0.063c-0.132-0.074-0.21-0.176-0.241-0.295
				c-0.039-0.139-0.021-0.258,0.044-0.371c0.069-0.121,0.164-0.195,0.295-0.223c0.122-0.039,0.248-0.018,0.378,0.057
				c0.131,0.074,0.212,0.172,0.247,0.301c0.032,0.119,0.014,0.24-0.054,0.359C25.176,72.188,25.083,72.263,24.957,72.308z"/>
			<path fill="#282828" d="M27.407,73.554c-0.122,0.039-0.25,0.033-0.387-0.031c-0.138-0.064-0.223-0.16-0.265-0.277
				c-0.048-0.133-0.04-0.254,0.018-0.373c0.059-0.125,0.146-0.207,0.274-0.244c0.12-0.047,0.245-0.035,0.381,0.027
				c0.137,0.064,0.226,0.154,0.271,0.281c0.043,0.115,0.033,0.236-0.025,0.361C27.618,73.417,27.529,73.501,27.407,73.554z"/>
			<path fill="#282828" d="M29.951,74.604c-0.117,0.049-0.247,0.053-0.389,0c-0.14-0.055-0.233-0.143-0.284-0.256
				c-0.058-0.129-0.06-0.25-0.014-0.373c0.051-0.129,0.132-0.219,0.257-0.266c0.114-0.057,0.242-0.057,0.382-0.002
				c0.141,0.053,0.238,0.137,0.292,0.256c0.05,0.115,0.052,0.236,0.002,0.365C30.15,74.45,30.069,74.542,29.951,74.604z"/>
			<path fill="#282828" d="M32.566,75.448c-0.114,0.059-0.243,0.074-0.388,0.031c-0.144-0.043-0.244-0.123-0.305-0.234
				c-0.067-0.121-0.078-0.244-0.041-0.369c0.037-0.133,0.113-0.229,0.232-0.285c0.11-0.064,0.236-0.074,0.382-0.031
				c0.145,0.041,0.245,0.117,0.312,0.234c0.058,0.107,0.069,0.229,0.03,0.361C32.752,75.28,32.678,75.378,32.566,75.448z"/>
			<path fill="#282828" d="M35.237,76.085c-0.11,0.066-0.236,0.092-0.383,0.061c-0.148-0.029-0.256-0.104-0.322-0.207
				c-0.077-0.119-0.099-0.238-0.071-0.365c0.028-0.137,0.095-0.238,0.21-0.303c0.105-0.074,0.229-0.094,0.378-0.063
				c0.146,0.031,0.254,0.098,0.327,0.209c0.068,0.104,0.089,0.223,0.061,0.357C35.409,75.903,35.344,76.005,35.237,76.085z"/>
			<path fill="#282828" d="M37.953,76.511c-0.104,0.074-0.228,0.109-0.378,0.09c-0.148-0.02-0.26-0.084-0.336-0.182
				c-0.088-0.111-0.117-0.229-0.099-0.359c0.016-0.139,0.075-0.244,0.184-0.318c0.099-0.082,0.223-0.109,0.372-0.092
				c0.149,0.02,0.262,0.078,0.344,0.182c0.076,0.1,0.105,0.217,0.088,0.354C38.112,76.315,38.053,76.421,37.953,76.511z"/>
			<path fill="#282828" d="M40.69,76.724c-0.1,0.082-0.221,0.127-0.371,0.119s-0.266-0.063-0.35-0.156
				c-0.096-0.105-0.134-0.219-0.128-0.352c0.007-0.137,0.056-0.248,0.162-0.33c0.091-0.09,0.212-0.127,0.362-0.121
				c0.149,0.008,0.266,0.057,0.355,0.156c0.085,0.094,0.122,0.207,0.115,0.346C40.831,76.517,40.782,76.626,40.69,76.724z"/>
		</g>
	</g>
	<g>
		<g>
			<g>
				<path fill="#282828" d="M39.428,42.604l-0.147-8.17c-0.01-0.536-0.103-0.922-0.281-1.156c-0.178-0.235-0.427-0.385-0.747-0.448
					c-0.32-0.062-0.847-0.128-1.581-0.198l-0.01-0.59l7.835,0.133l0.011,0.59c-0.615,0.025-1.076,0.068-1.384,0.132
					c-0.308,0.063-0.541,0.203-0.703,0.422c-0.16,0.219-0.238,0.571-0.229,1.058l0.154,8.513c0.014,0.786,0.217,1.47,0.609,2.052
					c0.392,0.582,0.941,1.025,1.646,1.33c0.707,0.305,1.525,0.465,2.457,0.48c0.979,0.016,1.834-0.137,2.563-0.459
					c0.73-0.324,1.297-0.822,1.7-1.494c0.404-0.672,0.597-1.486,0.58-2.443l-0.09-4.944c-0.02-1.115-0.124-1.992-0.313-2.631
					c-0.188-0.64-0.493-1.11-0.915-1.415c-0.421-0.303-1.01-0.479-1.767-0.528l-0.01-0.59l5.94,0.102l0.012,0.589
					c-0.678,0.074-1.184,0.287-1.521,0.639c-0.336,0.352-0.556,0.817-0.661,1.398c-0.105,0.58-0.149,1.299-0.134,2.157l0.1,5.542
					c0.014,0.766-0.126,1.457-0.419,2.078c-0.293,0.619-0.725,1.148-1.295,1.586c-0.569,0.436-1.259,0.762-2.067,0.977
					s-1.733,0.314-2.772,0.297c-2.482-0.043-4.328-0.719-5.538-2.033c-0.369-0.422-0.629-0.861-0.78-1.32
					C39.52,43.798,39.44,43.247,39.428,42.604z M40.574,42.687l-0.155-8.567c-0.019-1.057-0.574-1.542-1.666-1.453
					c0.59,0.225,0.892,0.744,0.906,1.559l0.154,8.556c0.022,1.222,0.426,2.185,1.207,2.888c0.783,0.703,1.949,1.225,3.495,1.564
					c-0.597-0.246-1.105-0.484-1.526-0.717c-0.42-0.232-0.814-0.52-1.184-0.861c-0.367-0.342-0.661-0.762-0.882-1.258
					C40.703,43.899,40.585,43.329,40.574,42.687z M52.749,32.904l-2.37-0.04c0.715,0.312,1.177,0.884,1.385,1.717
					c0.084-0.406,0.2-0.743,0.345-1.014C52.252,33.299,52.466,33.078,52.749,32.904z"/>
			</g>
			<g>
				<path fill="#282828" d="M52.529,31.873l-8.87,2.308l-0.15-0.57c0.622-0.185,1.077-0.359,1.368-0.528
					c0.29-0.168,0.471-0.386,0.541-0.656c0.068-0.269,0.043-0.631-0.075-1.089l-2.715-10.439c-0.133-0.512-0.402-0.811-0.809-0.898
					c-0.402-0.086-1.012-0.05-1.821,0.109l-0.147-0.571l9.239-2.403c1.201-0.313,2.354-0.416,3.46-0.313
					c1.106,0.104,2.11,0.395,3.01,0.873c0.902,0.479,1.668,1.124,2.301,1.934c0.633,0.811,1.086,1.742,1.359,2.793
					c0.27,1.031,0.313,2.04,0.137,3.027c-0.178,0.988-0.561,1.906-1.152,2.754s-1.373,1.591-2.342,2.227
					C54.893,31.066,53.782,31.547,52.529,31.873z M46.466,31.112l-2.494-9.589c-0.213-0.823-0.446-1.38-0.698-1.673
					s-0.721-0.354-1.409-0.183c0.36,0.069,0.62,0.203,0.779,0.402c0.159,0.198,0.3,0.53,0.419,0.993l2.598,9.983
					c0.111,0.429,0.172,0.771,0.183,1.027c0.012,0.256-0.02,0.459-0.091,0.611c-0.072,0.152-0.201,0.299-0.387,0.444
					c0.566-0.148,0.93-0.377,1.087-0.688C46.611,32.128,46.616,31.686,46.466,31.112z M45.867,21.784l2.18,8.374
					c0.155,0.602,0.315,1.028,0.475,1.279c0.161,0.249,0.427,0.398,0.798,0.446c0.369,0.048,0.933-0.026,1.686-0.223
					c0.813-0.211,1.52-0.478,2.121-0.8c0.6-0.323,1.141-0.753,1.623-1.292c0.566-0.635,0.977-1.268,1.226-1.898
					c0.25-0.63,0.374-1.305,0.374-2.025c0-0.721-0.107-1.496-0.324-2.326c-0.643-2.47-1.902-4.118-3.781-4.944
					c-0.748-0.33-1.523-0.501-2.33-0.513c-0.809-0.011-1.723,0.116-2.744,0.381c-0.7,0.183-1.17,0.406-1.408,0.671
					c-0.238,0.265-0.338,0.583-0.302,0.953C45.495,20.239,45.632,20.877,45.867,21.784z M53.823,30.927
					c0.933-0.338,1.711-0.866,2.336-1.583c0.626-0.716,1.036-1.61,1.232-2.68c0.195-1.07,0.119-2.27-0.226-3.598
					c-0.249-0.955-0.58-1.799-0.998-2.533c-0.419-0.733-0.909-1.342-1.474-1.827s-1.186-0.827-1.867-1.026
					c-0.399-0.125-0.8-0.195-1.201-0.208c-0.4-0.014-0.832-0.001-1.292,0.037c3.128,0.302,5.158,2.241,6.088,5.818
					c0.278,1.072,0.374,2.063,0.288,2.972s-0.37,1.749-0.854,2.521C55.37,29.592,54.694,30.294,53.823,30.927z"/>
			</g>
			<g>
				<path fill="#282828" d="M33.542,23.583l0.974,4.617c0.107,0.511,0.232,0.9,0.371,1.171c0.139,0.27,0.33,0.457,0.572,0.558
					c0.242,0.102,0.565,0.138,0.973,0.108c0.408-0.03,0.956-0.102,1.649-0.215c0.836-0.135,1.563-0.375,2.179-0.717
					c0.616-0.343,1.17-0.792,1.663-1.345c0.492-0.553,1.009-1.269,1.547-2.145l0.913-0.148l-0.624,4.03L29.713,31.78l-0.122-0.577
					c0.675-0.124,1.178-0.262,1.512-0.414c0.334-0.152,0.553-0.35,0.653-0.595c0.103-0.244,0.11-0.569,0.024-0.975l-2.19-10.376
					c-0.103-0.489-0.246-0.835-0.432-1.037c-0.184-0.201-0.447-0.315-0.792-0.343c-0.344-0.027-0.896,0.003-1.655,0.091
					l-0.123-0.578l13.486-2.191l2.088,3.122l-0.823,0.134c-0.548-0.439-1.184-0.815-1.907-1.128
					c-0.723-0.313-1.505-0.531-2.345-0.654c-0.84-0.124-1.698-0.115-2.574,0.027c-0.69,0.112-1.198,0.266-1.52,0.459
					s-0.512,0.422-0.574,0.685c-0.062,0.263-0.052,0.594,0.033,0.993l0.965,4.574l2.294-0.373c2.001-0.325,2.834-1.332,2.501-3.022
					l0.799-0.129l1.173,5.561l-0.707,0.115c-0.271-0.838-0.663-1.417-1.176-1.735c-0.51-0.318-1.208-0.406-2.09-0.262L33.542,23.583
					z M29.984,18.866l2.143,10.146c0.107,0.511,0.123,0.896,0.043,1.153c-0.078,0.26-0.231,0.49-0.455,0.693
					c0.63-0.11,1.007-0.328,1.131-0.656c0.122-0.327,0.114-0.823-0.025-1.488l-2.145-10.156c-0.126-0.594-0.319-0.97-0.581-1.126
					c-0.26-0.157-0.673-0.196-1.239-0.118c0.311,0.094,0.55,0.248,0.718,0.463C29.739,17.992,29.877,18.355,29.984,18.866z
					 M38.877,23.421l-0.434-2.056c-0.198,0.517-0.666,0.947-1.404,1.291c0.44,0.038,0.799,0.11,1.072,0.217
					C38.387,22.98,38.641,23.163,38.877,23.421z M39.124,15.536l-2.064,0.335c0.607,0.083,1.157,0.21,1.65,0.383
					c0.492,0.173,1.022,0.392,1.59,0.653L39.124,15.536z M42.497,29.105l0.402-1.955c-0.355,0.521-0.69,0.921-1.01,1.202
					c-0.319,0.279-0.778,0.638-1.378,1.075L42.497,29.105z"/>
			</g>
			<g>
				<path fill="#282828" d="M33.745,53.325c2.037-1.262,4.813-2.324,7.281-1.857c0.958,0.094,1.879,0.303,2.794,0.592
					c0.504,0.164,1.552,0.744,1.934,0.322c2.774-3.059,6.253-3.809,10.154-3.969c-1.424-2.676-1.382-2.707-2.927-5.313
					c1.042,2.42,0.586,2.223,1.728,4.598c-3.397,0.037-6.561,0.83-9.136,3.148c-1.961-3.77,0,0-1.961-3.77l0.702,3.842
					c-3.358-0.99-6.841-1.182-10.016,0.563c-1.772-3.473-3.562-6.934-5.382-10.388c2.556-2.329,7.158-1.693,10.236-1.307
					c-2.125-0.513-4.81-1.309-7.022-0.758c-1.498,0.304-3.053,0.671-4.217,1.729c-0.363,0.33,1.555,3.708,1.819,4.27
					C31.038,47.81,32.405,50.562,33.745,53.325z"/>
				<path fill="#282828" d="M39.805,54.87c1.643,0.039,3.408,0.348,4.946,0.943c0.28,0.111,1.641,0.791,1.833,0.572
					c3.549-4.008,8.257-5.158,13.354-5.244c-1.874-3.436-3.739-6.879-5.736-10.244c1.368,3.162,2.844,6.275,4.323,9.388
					c-4.596-0.041-9.091,1.24-12.375,4.646c-4.635-1.707-9.962-2.078-14.321,0.574c-2.48-4.688-4.93-9.395-7.585-13.989
					c2.229,5.278,4.702,10.448,7.121,15.639C33.942,55.503,36.765,54.862,39.805,54.87z"/>
				<path fill="#282828" d="M57.007,41.315c1.755,3.928,3.62,7.799,5.485,11.676c-5.73-0.057-11.273,1.521-15.366,5.814
					c-5.729-2.148-12.323-2.621-17.742,0.707c-3.052-5.834-6.071-11.689-9.297-17.43c2.802,6.422,5.843,12.743,8.835,19.077
					c3.276-2.137,7.207-3.068,11.104-2.756c0.888,0.07,1.759,0.213,2.631,0.396c1.51,0.248,2.892,1.1,4.366,1.352
					c0.738,0.125,0.713-0.174,1.317-0.77c0.706-0.697,1.479-1.328,2.288-1.902c1.684-1.189,3.519-2.053,5.467-2.705
					c2.565-0.859,5.139-0.898,7.81-0.928C61.642,49.647,59.39,45.444,57.007,41.315z"/>
			</g>
		</g>
		<g>
			<path fill="#282828" d="M34.09,65.554v-0.219c0.531-0.217,0.91-0.379,1.136-0.484c0.104-0.047,0.238-0.121,0.396-0.217
				l0.116,0.088c-0.062,0.799-0.092,1.793-0.092,2.984c0,1.027,0.003,1.611,0.008,1.75c0.006,0.275,0.027,0.449,0.064,0.521
				c0.02,0.033,0.045,0.061,0.082,0.08c0.013,0.006,0.221,0.061,0.623,0.17v0.225c-0.553-0.029-0.957-0.043-1.213-0.043
				c-0.296,0-0.637,0.014-1.028,0.043v-0.225c0.394-0.104,0.608-0.164,0.646-0.186s0.064-0.051,0.084-0.086
				c0.024-0.047,0.043-0.221,0.053-0.52c0.004-0.102,0.004-0.641,0.004-1.613l-0.004-1.613l-0.008-0.379
				c-0.002-0.152-0.023-0.254-0.061-0.303c-0.038-0.049-0.099-0.072-0.181-0.072C34.624,65.456,34.416,65.489,34.09,65.554z"/>
			<path fill="#282828" d="M38.164,70.606l-0.077-0.326c0.436-0.162,0.815-0.369,1.14-0.621c0.323-0.254,0.598-0.563,0.825-0.928
				c0.16-0.262,0.302-0.602,0.423-1.021c-0.302,0.293-0.55,0.492-0.742,0.596c-0.194,0.104-0.382,0.154-0.565,0.154
				c-0.396,0-0.742-0.158-1.034-0.475c-0.294-0.318-0.44-0.744-0.44-1.279c0-0.613,0.183-1.111,0.548-1.496
				c0.365-0.383,0.813-0.576,1.339-0.576c0.516,0,0.937,0.176,1.26,0.527c0.324,0.35,0.486,0.863,0.486,1.541
				c0,0.549-0.121,1.1-0.361,1.654c-0.239,0.553-0.584,1.008-1.029,1.365C39.487,70.077,38.896,70.372,38.164,70.606z
				 M38.405,66.271c0,0.535,0.11,0.936,0.33,1.203c0.22,0.264,0.486,0.398,0.797,0.398c0.271,0,0.51-0.113,0.717-0.338
				c0.207-0.223,0.31-0.52,0.31-0.889c0-0.457-0.108-0.85-0.327-1.182c-0.219-0.33-0.499-0.494-0.84-0.494
				c-0.268,0-0.499,0.111-0.695,0.338C38.502,65.534,38.405,65.854,38.405,66.271z"/>
			<path fill="#282828" d="M42.374,70.606l-0.077-0.326c0.436-0.162,0.815-0.369,1.139-0.621c0.324-0.254,0.599-0.563,0.825-0.928
				c0.162-0.262,0.302-0.602,0.424-1.021c-0.303,0.293-0.549,0.492-0.742,0.596s-0.382,0.154-0.565,0.154
				c-0.396,0-0.742-0.158-1.035-0.475c-0.294-0.318-0.439-0.744-0.439-1.279c0-0.613,0.182-1.111,0.548-1.496
				c0.365-0.383,0.813-0.576,1.339-0.576c0.517,0,0.936,0.176,1.26,0.527c0.324,0.35,0.485,0.863,0.485,1.541
				c0,0.549-0.12,1.1-0.361,1.654c-0.239,0.553-0.582,1.008-1.028,1.365C43.698,70.077,43.107,70.372,42.374,70.606z M42.616,66.271
				c0,0.535,0.11,0.936,0.33,1.203c0.219,0.264,0.485,0.398,0.796,0.398c0.271,0,0.51-0.113,0.718-0.338
				c0.206-0.223,0.309-0.52,0.309-0.889c0-0.457-0.109-0.85-0.328-1.182c-0.219-0.33-0.498-0.494-0.839-0.494
				c-0.269,0-0.5,0.111-0.694,0.338S42.616,65.854,42.616,66.271z"/>
			<path fill="#282828" d="M49.386,64.614l0.092,0.318c-0.499,0.209-0.907,0.438-1.222,0.684s-0.57,0.527-0.767,0.844
				c-0.134,0.215-0.255,0.51-0.363,0.883c0.409-0.309,0.675-0.492,0.797-0.549c0.123-0.059,0.263-0.088,0.421-0.088
				c0.446,0,0.812,0.156,1.096,0.467c0.283,0.311,0.426,0.73,0.426,1.264c0,0.531-0.166,1.021-0.492,1.469
				c-0.328,0.445-0.789,0.668-1.379,0.668c-0.508,0-0.936-0.193-1.279-0.58s-0.517-0.918-0.517-1.594
				c0-0.785,0.232-1.504,0.694-2.16C47.415,65.497,48.247,64.954,49.386,64.614z M49.172,68.825c0-0.178-0.041-0.4-0.119-0.67
				c-0.08-0.27-0.208-0.482-0.386-0.643c-0.178-0.158-0.383-0.238-0.617-0.238c-0.188,0-0.368,0.055-0.538,0.162
				c-0.171,0.107-0.294,0.24-0.369,0.396c-0.074,0.156-0.113,0.357-0.113,0.605c0,0.58,0.139,1.047,0.412,1.396
				c0.211,0.27,0.458,0.404,0.738,0.404c0.324,0,0.571-0.141,0.74-0.42C49.087,69.538,49.172,69.208,49.172,68.825z"/>
		</g>
	</g>
</g>
<g>
	<g>
		<path fill="#FFFFFF" d="M129.323,40.042l0.275,0.18l-0.511,9.198l-3.103-0.18l-0.354-5.096h-12.883v7.033h7.227l1.218-3.291
			l2.436,0.227v10.865l-2.554,0.225l-1.1-4.238h-7.227v9.018h12.961l1.571-6.357l3.143,0.316l-0.786,9.873h-25.333l-0.196-2.75
			l3.849-0.947V44.009l-3.849-0.947l0.196-2.75h18.146L129.323,40.042z"/>
		<path fill="#FFFFFF" d="M153.282,58.978h0.354l8.248-18.667h10.919l0.196,2.75l-3.849,0.947v20.107l3.849,0.947l-0.196,2.75
			h-12.293l-0.196-2.75l4.124-0.947V44.55h-0.511l-9.977,22.813l-2.199,0.406L141.303,44.46h-0.551l0.433,10.1v9.602l3.495,0.902
			l-0.196,2.75h-10.565l-0.196-2.75l3.653-0.902V43.964l-3.653-0.902l0.196-2.75h10.958L153.282,58.978z"/>
		<path fill="#FFFFFF" d="M183.878,39.704c2.173-0.195,4.386-0.293,6.638-0.293c3.456,0,6.199,0.541,8.229,1.623
			c2.028,1.082,3.044,3.006,3.044,5.77c0,1.473-0.387,2.729-1.159,3.766s-1.813,1.676-3.122,1.916v0.18
			c2.042,0.361,3.6,1.143,4.674,2.344c1.073,1.203,1.61,2.736,1.61,4.6c0,3.156-1.192,5.434-3.574,6.83
			c-2.383,1.398-5.263,2.098-8.641,2.098c-3.273,0-5.957-0.1-8.052-0.293c-2.096-0.197-4.7-0.549-7.816-1.061l0.196-2.75
			l3.889-0.361V43.874l-3.889-0.361l-0.196-2.885C178.982,40.206,181.705,39.899,183.878,39.704z M192.637,51.042
			c1.414,0,2.494-0.285,3.24-0.855c0.746-0.572,1.119-1.518,1.119-2.842c0-1.533-0.583-2.621-1.748-3.268s-2.86-0.971-5.086-0.971
			c-1.938,0-3.81,0.182-5.616,0.541v7.395H192.637z M190.673,64.749c2.461,0,4.458-0.369,5.989-1.105
			c1.532-0.736,2.298-2.111,2.298-4.125c0-1.623-0.557-2.803-1.669-3.539c-1.113-0.736-2.6-1.105-4.458-1.105h-8.287v9.242
			C186.719,64.538,188.761,64.749,190.673,64.749z"/>
		<path fill="#FFFFFF" d="M235.29,64.208l3.574,0.855l-0.195,2.75h-12.295l-0.195-2.75l3.652-0.902l-1.689-4.057h-12.843
			l-1.767,4.057l3.691,0.902l-0.196,2.75h-11.469l-0.196-2.75l3.928-0.947l8.405-17.627l2.16-5.456l4.635-1.533h0.236L235.29,64.208
			z M226.649,56.407l-4.477-11.316h-0.393l-4.911,11.316H226.649z"/>
		<path fill="#FFFFFF" d="M261.958,45.587c-2.227-1.713-4.936-2.57-8.131-2.57c-2.277,0-3.965,0.324-5.064,0.971
			s-1.65,1.631-1.65,2.953c0,0.842,0.256,1.531,0.766,2.072c0.512,0.541,1.238,0.887,2.18,1.037l8.68,1.443
			c2.723,0.422,4.832,1.262,6.324,2.525c1.492,1.262,2.238,3.051,2.238,5.365c0,3.455-1.25,5.914-3.75,7.371
			c-2.502,1.457-5.689,2.186-9.564,2.186c-2.277,0-4.432-0.27-6.461-0.811s-4.039-1.473-6.029-2.795l0.434-7.846l2.514,0.045
			l0.863,4.328c1.258,1.023,2.598,1.813,4.025,2.367c1.428,0.557,3.096,0.834,5.008,0.834c2.514,0,4.438-0.314,5.773-0.947
			c1.336-0.631,2.004-1.803,2.004-3.516c0-1.082-0.314-1.953-0.943-2.615c-0.629-0.66-1.531-1.082-2.711-1.262l-9.031-1.488
			c-2.254-0.361-4.047-1.143-5.381-2.344c-1.336-1.203-2.004-2.871-2.004-5.006c0-3.035,1.086-5.244,3.26-6.627
			c2.174-1.383,5.145-2.074,8.916-2.074c2.33,0,4.471,0.264,6.42,0.789c1.951,0.527,3.686,1.225,5.205,2.096l-0.393,7.981
			l-2.396,0.137L261.958,45.587z"/>
		<path fill="#FFFFFF" d="M290.944,45.587c-2.227-1.713-4.936-2.57-8.131-2.57c-2.277,0-3.967,0.324-5.066,0.971
			s-1.648,1.631-1.648,2.953c0,0.842,0.254,1.531,0.766,2.072c0.51,0.541,1.236,0.887,2.18,1.037l8.68,1.443
			c2.723,0.422,4.832,1.262,6.324,2.525c1.492,1.262,2.238,3.051,2.238,5.365c0,3.455-1.25,5.914-3.75,7.371
			c-2.502,1.457-5.689,2.186-9.564,2.186c-2.277,0-4.432-0.27-6.461-0.811s-4.039-1.473-6.029-2.795l0.432-7.846l2.514,0.045
			l0.865,4.328c1.256,1.023,2.598,1.813,4.025,2.367c1.426,0.557,3.096,0.834,5.008,0.834c2.514,0,4.438-0.314,5.773-0.947
			c1.336-0.631,2.004-1.803,2.004-3.516c0-1.082-0.314-1.953-0.943-2.615c-0.629-0.66-1.531-1.082-2.711-1.262l-9.033-1.488
			c-2.252-0.361-4.045-1.143-5.381-2.344c-1.336-1.203-2.002-2.871-2.002-5.006c0-3.035,1.086-5.244,3.26-6.627
			c2.172-1.383,5.145-2.074,8.916-2.074c2.33,0,4.471,0.264,6.42,0.789c1.951,0.527,3.686,1.225,5.205,2.096l-0.393,7.981
			l-2.396,0.137L290.944,45.587z"/>
		<path fill="#FFFFFF" d="M311.054,43.062l-3.418,0.813l7.188,11.451h0.354l6.756-11.227l-4.281-1.037l0.197-2.75h12.137l0.195,2.75
			l-3.85,0.947l-9.504,15.104v5.004l3.85,0.947l-0.197,2.75h-12.098l-0.195-2.75l3.848-0.947v-5.094l-10.682-15.104l-3.654-0.857
			l0.197-2.75h12.961L311.054,43.062z"/>
		<path fill="#FFFFFF" d="M369.536,40.042l0.275,0.18l-0.512,9.198l-3.102-0.18l-0.354-5.096h-12.883v7.033h7.227l1.217-3.291
			l2.436,0.227v10.865l-2.553,0.225l-1.1-4.238h-7.227v9.018h12.961l1.57-6.357l3.143,0.316l-0.785,9.873h-25.334l-0.195-2.75
			l3.848-0.947V44.009l-3.848-0.947l0.195-2.75h18.146L369.536,40.042z"/>
		<path fill="#FFFFFF" d="M381.142,39.905c2.266-0.148,4.969-0.225,8.111-0.225c4.424,0,7.953,1.211,10.584,3.629
			c2.633,2.42,3.947,5.945,3.947,10.572c0,3.127-0.607,5.766-1.826,7.914c-1.217,2.148-2.912,3.764-5.086,4.846
			s-4.713,1.623-7.619,1.623c-3.143,0-5.846-0.076-8.111-0.225c-2.266-0.152-4.615-0.406-7.051-0.768l0.197-2.84l3.85-0.361V43.919
			l-3.85-0.406l-0.197-2.84C376.526,40.311,378.876,40.057,381.142,39.905z M389.214,64.612c3.088,0,5.479-0.871,7.168-2.615
			c1.688-1.742,2.533-4.447,2.533-8.115c0-7.033-3.234-10.549-9.701-10.549c-2.332,0-4.426,0.195-6.285,0.586v20.107
			C384.788,64.417,386.882,64.612,389.214,64.612z"/>
		<path fill="#FFFFFF" d="M417.374,43.062l-3.809,0.947v12.805c0,2.766,0.746,4.84,2.238,6.221c1.492,1.383,3.43,2.074,5.813,2.074
			c2.225,0,4-0.758,5.322-2.275s1.982-3.766,1.982-6.74V43.919l-3.691-0.857l0.197-2.75h10.723l0.195,2.75l-3.338,0.857v11.723
			c0,2.855-0.531,5.281-1.592,7.281c-1.061,1.998-2.486,3.502-4.281,4.508c-1.793,1.006-3.777,1.51-5.949,1.51
			c-2.436,0-4.59-0.488-6.461-1.465c-1.873-0.977-3.338-2.457-4.398-4.441c-1.061-1.982-1.592-4.418-1.592-7.303V44.009l-3.85-0.947
			l0.197-2.75h12.098L417.374,43.062z"/>
	</g>
	<g>
		<path fill="#FFFFFF" d="M316.329,12.904c-0.945-0.629-1.998-0.944-3.158-0.944c-1.031,0-1.834,0.139-2.406,0.415
			s-0.859,0.757-0.859,1.445c0,0.374,0.078,0.678,0.236,0.915c0.158,0.236,0.43,0.393,0.816,0.472l4.533,1.003
			c1.104,0.256,1.969,0.748,2.602,1.476c0.629,0.728,0.945,1.731,0.945,3.009c0,1.693-0.502,2.917-1.506,3.674
			c-1.002,0.756-2.436,1.136-4.297,1.136c-2.248,0-4.146-0.483-5.693-1.445l0.107-4.426h1.482l0.322,2.39
			c1.145,0.728,2.406,1.091,3.781,1.091c1.232,0,2.102-0.171,2.611-0.517c0.506-0.343,0.762-0.851,0.762-1.519
			c0-0.512-0.121-0.915-0.365-1.209c-0.244-0.296-0.623-0.492-1.139-0.591l-4.363-0.943c-0.986-0.216-1.756-0.683-2.309-1.402
			c-0.551-0.718-0.826-1.636-0.826-2.759c0-3.067,1.854-4.603,5.564-4.603c1.934,0,3.646,0.413,5.137,1.24l-0.215,4.75h-1.461
			L316.329,12.904z"/>
		<path fill="#FFFFFF" d="M324.774,10.249v12.57l1.523,0.294l-0.084,1.8h-5.502l-0.107-1.8l1.547-0.294V12.285l-1.332-0.177
			l-0.107-1.771l3.889-0.295L324.774,10.249z M324.677,4.894c0.336,0.384,0.506,0.861,0.506,1.431c0,0.571-0.17,1.048-0.506,1.431
			c-0.338,0.383-0.748,0.575-1.234,0.575c-0.473,0-0.879-0.192-1.215-0.575s-0.506-0.86-0.506-1.431c0-0.57,0.17-1.047,0.506-1.431
			s0.742-0.575,1.215-0.575C323.929,4.319,324.339,4.51,324.677,4.894z"/>
		<path fill="#FFFFFF" d="M331.368,11.783c0.561-0.708,1.24-1.253,2.043-1.638c0.801-0.383,1.662-0.575,2.578-0.575
			c1.775,0,3.127,0.621,4.051,1.859c0.924,1.239,1.385,2.893,1.385,4.957v6.433l1.527,0.294l-0.109,1.8h-5.457l-0.107-1.8
			l1.547-0.294v-6.728c0-1.318-0.258-2.327-0.773-3.024c-0.516-0.698-1.346-1.047-2.492-1.047c-0.76,0-1.438,0.138-2.031,0.413
			c-0.594,0.276-1.129,0.7-1.6,1.27v9.117l1.523,0.294l-0.107,1.8h-5.457l-0.107-1.8l1.527-0.294V12.345l-1.42-0.119l-0.107-1.798
			l3.029-0.415L331.368,11.783z"/>
		<path fill="#FFFFFF" d="M354.036,17.007l-0.406-4.25c-0.902-0.551-1.879-0.827-2.924-0.827c-1.303,0-2.328,0.512-3.072,1.535
			s-1.117,2.38-1.117,4.071c0,1.693,0.34,3.049,1.021,4.073c0.68,1.021,1.664,1.533,2.953,1.533c0.99,0,1.795-0.133,2.418-0.398
			c0.623-0.265,1.287-0.742,1.986-1.43l0.924,2.124c-0.744,0.728-1.557,1.253-2.438,1.578c-0.881,0.325-1.844,0.488-2.891,0.488
			c-1.344,0-2.516-0.355-3.514-1.063c-0.994-0.708-1.756-1.668-2.287-2.877c-0.529-1.209-0.793-2.552-0.793-4.027
			s0.275-2.822,0.826-4.042c0.551-1.22,1.342-2.178,2.373-2.877c1.031-0.698,2.234-1.047,3.609-1.047
			c2.049,0,3.783,0.502,5.201,1.505l-0.301,5.931H354.036z"/>
		<path fill="#FFFFFF" d="M360.397,18.569c0.115,1.496,0.502,2.631,1.16,3.409c0.658,0.777,1.568,1.164,2.729,1.164
			c1.002,0,1.816-0.122,2.439-0.369c0.623-0.246,1.277-0.702,1.965-1.372l0.924,2.125c-0.76,0.728-1.545,1.239-2.363,1.534
			c-0.814,0.295-1.805,0.443-2.965,0.443c-1.359,0-2.533-0.355-3.523-1.063c-0.988-0.708-1.74-1.668-2.256-2.877
			s-0.773-2.552-0.773-4.027c0-1.494,0.264-2.846,0.795-4.056c0.531-1.211,1.303-2.163,2.32-2.863
			c1.018-0.698,2.213-1.047,3.588-1.047c1.936,0,3.445,0.699,4.535,2.095c1.088,1.397,1.631,3.305,1.631,5.725
			c0,0.511-0.035,0.954-0.105,1.327l-0.129,0.178h-5.523L360.397,18.569z M366.974,13.023c-0.615-0.728-1.461-1.093-2.537-1.093
			c-1.174,0-2.102,0.385-2.781,1.152c-0.682,0.766-1.102,1.888-1.258,3.363h7.584C367.925,14.891,367.589,13.751,366.974,13.023z"/>
		<path fill="#FFFFFF" d="M385.688,23.113v1.8h-6.811v-1.8l2.32-0.619V11.458c-0.402,0.139-0.783,0.236-1.15,0.296
			c-0.365,0.059-0.813,0.088-1.344,0.088l-0.193-1.8c0.818-0.177,1.545-0.536,2.182-1.077c0.639-0.542,1.207-1.264,1.707-2.169
			l1.42,0.296v15.402L385.688,23.113z"/>
		<path fill="#FFFFFF" d="M390.759,22.082c1.105,0.845,2.314,1.267,3.633,1.267c1.389,0,2.488-0.457,3.299-1.37
			c0.807-0.917,1.277-2.336,1.406-4.264c-0.674,0.432-1.4,0.761-2.182,0.987c-0.779,0.227-1.68,0.339-2.697,0.339
			c-1.818,0-3.318-0.502-4.5-1.505c-1.184-1.003-1.773-2.517-1.773-4.543c0-2.399,0.641-4.135,1.924-5.208
			c1.281-1.073,2.883-1.608,4.803-1.608c2.191,0,3.928,0.801,5.211,2.405c1.281,1.603,1.922,3.998,1.922,7.184
			c0,2.104-0.332,3.899-1,5.384c-0.664,1.485-1.563,2.606-2.684,3.364c-1.125,0.757-2.367,1.136-3.729,1.136
			c-1.146,0-2.184-0.103-3.105-0.31c-0.924-0.206-1.795-0.536-2.611-0.989l-0.15-4.662l1.332-0.118L390.759,22.082z M398.013,10.235
			c-0.738-1.053-1.852-1.579-3.342-1.579c-1.404,0-2.443,0.345-3.115,1.033c-0.674,0.688-1.012,1.76-1.012,3.215
			c0,1.201,0.338,2.091,1.012,2.671c0.672,0.581,1.725,0.87,3.158,0.87c0.945,0,1.77-0.079,2.469-0.236
			c0.703-0.156,1.385-0.422,2.043-0.797C399.153,13.013,398.749,11.288,398.013,10.235z"/>
		<path fill="#FFFFFF" d="M406.981,22.082c1.104,0.845,2.313,1.267,3.631,1.267c1.391,0,2.488-0.457,3.299-1.37
			c0.809-0.917,1.277-2.336,1.406-4.264c-0.674,0.432-1.398,0.761-2.18,0.987c-0.781,0.227-1.68,0.339-2.697,0.339
			c-1.818,0-3.32-0.502-4.5-1.505c-1.184-1.003-1.775-2.517-1.775-4.543c0-2.399,0.643-4.135,1.924-5.208s2.883-1.608,4.803-1.608
			c2.191,0,3.928,0.801,5.211,2.405c1.281,1.603,1.922,3.998,1.922,7.184c0,2.104-0.332,3.899-0.998,5.384s-1.563,2.606-2.686,3.364
			c-1.125,0.757-2.367,1.136-3.729,1.136c-1.146,0-2.182-0.103-3.104-0.31c-0.926-0.206-1.795-0.536-2.611-0.989l-0.15-4.662
			l1.332-0.118L406.981,22.082z M414.233,10.235c-0.738-1.053-1.852-1.579-3.342-1.579c-1.404,0-2.441,0.345-3.115,1.033
			s-1.01,1.76-1.01,3.215c0,1.201,0.336,2.091,1.01,2.671c0.674,0.581,1.727,0.87,3.158,0.87c0.947,0,1.77-0.079,2.471-0.236
			c0.703-0.156,1.383-0.422,2.041-0.797C415.376,13.013,414.97,11.288,414.233,10.235z"/>
		<path fill="#FFFFFF" d="M430.788,9.748c-1.104-0.846-2.314-1.268-3.631-1.268c-1.42,0-2.525,0.432-3.32,1.297
			c-0.795,0.866-1.256,2.312-1.385,4.337c0.672-0.433,1.4-0.762,2.18-0.988c0.781-0.226,1.68-0.339,2.695-0.339
			c1.85,0,3.357,0.478,4.523,1.43c1.168,0.955,1.752,2.435,1.752,4.441c0,2.419-0.637,4.188-1.912,5.311
			c-1.275,1.121-2.857,1.682-4.748,1.682c-1.434,0-2.689-0.369-3.771-1.107c-1.082-0.737-1.924-1.848-2.523-3.333
			c-0.604-1.485-0.904-3.3-0.904-5.444c0-2.105,0.334-3.875,0.998-5.312c0.668-1.434,1.561-2.507,2.676-3.215
			c1.119-0.708,2.365-1.063,3.74-1.063c1.145,0,2.18,0.103,3.104,0.31c0.926,0.206,1.795,0.537,2.611,0.989l-0.15,4.956
			l-1.334,0.119L430.788,9.748z M423.558,21.594c0.752,1.053,1.879,1.578,3.385,1.578c1.389,0,2.412-0.353,3.072-1.061
			c0.656-0.71,0.988-1.8,0.988-3.276c0-1.2-0.334-2.074-1-2.625s-1.723-0.827-3.168-0.827c-0.945,0-1.77,0.079-2.473,0.236
			c-0.703,0.158-1.383,0.424-2.039,0.797C422.394,18.815,422.806,20.542,423.558,21.594z"/>
	</g>
</g>
</svg>
