<?xml version="1.0" encoding="utf-8"?>
<!-- Generator: Adobe Illustrator 16.0.0, SVG Export Plug-In . SVG Version: 6.00 Build 0)  -->
<!DOCTYPE svg PUBLIC "-//W3C//DTD SVG 1.1//EN" "http://www.w3.org/Graphics/SVG/1.1/DTD/svg11.dtd">
<svg version="1.1" id="레이어_1" xmlns="http://www.w3.org/2000/svg" xmlns:xlink="http://www.w3.org/1999/xlink" x="0px"
	 y="0px" width="435.345px" height="82.889px" viewBox="0 0 435.345 82.889" enable-background="new 0 0 435.345 82.889"
	 xml:space="preserve">
<g>
	<g>
		<path fill="#282828" d="M128.519,39.855l0.275,0.181l-0.511,9.197l-3.103-0.181l-0.354-5.095h-12.883v7.033h7.227l1.218-3.291
			l2.436,0.226v10.865l-2.554,0.226l-1.1-4.238h-7.227v9.018h12.961l1.571-6.357l3.143,0.315l-0.786,9.874H103.5l-0.196-2.75
			l3.849-0.947V43.823l-3.849-0.947l0.196-2.75h18.146L128.519,39.855z"/>
		<path fill="#282828" d="M152.478,58.791h0.354l8.248-18.665h10.919l0.196,2.75l-3.849,0.947v20.107l3.849,0.947l-0.196,2.75
			h-12.293l-0.196-2.75l4.124-0.947V44.364h-0.511l-9.977,22.813l-2.199,0.406l-10.447-23.31h-0.551l0.433,10.1v9.603l3.495,0.902
			l-0.196,2.75h-10.565l-0.196-2.75l3.653-0.902V43.778l-3.653-0.902l0.196-2.75h10.958L152.478,58.791z"/>
		<path fill="#282828" d="M183.074,39.518c2.173-0.195,4.386-0.293,6.638-0.293c3.456,0,6.199,0.541,8.229,1.623
			c2.028,1.082,3.044,3.006,3.044,5.771c0,1.473-0.387,2.728-1.159,3.765s-1.813,1.676-3.122,1.916v0.181
			c2.042,0.36,3.6,1.143,4.674,2.344c1.073,1.203,1.61,2.736,1.61,4.6c0,3.155-1.192,5.433-3.574,6.83
			c-2.383,1.397-5.263,2.097-8.641,2.097c-3.273,0-5.957-0.099-8.052-0.293c-2.096-0.196-4.7-0.549-7.816-1.06l0.196-2.751
			l3.889-0.36V43.688l-3.889-0.36l-0.196-2.886C178.178,40.021,180.9,39.713,183.074,39.518z M191.833,50.856
			c1.414,0,2.494-0.285,3.24-0.856s1.119-1.518,1.119-2.841c0-1.533-0.583-2.622-1.748-3.269s-2.86-0.97-5.086-0.97
			c-1.938,0-3.81,0.181-5.616,0.541v7.395H191.833z M189.869,64.563c2.461,0,4.458-0.368,5.989-1.104
			c1.532-0.736,2.298-2.111,2.298-4.126c0-1.623-0.557-2.802-1.669-3.539c-1.113-0.736-2.6-1.104-4.458-1.104h-8.287v9.242
			C185.915,64.353,187.957,64.563,189.869,64.563z"/>
		<path fill="#282828" d="M234.486,64.021l3.574,0.856l-0.196,2.75H225.57l-0.196-2.75l3.653-0.902l-1.689-4.058h-12.844
			l-1.767,4.058l3.691,0.902l-0.196,2.75h-11.469l-0.196-2.75l3.928-0.947l8.405-17.628l2.16-5.455l4.635-1.533h0.235
			L234.486,64.021z M225.846,56.222l-4.478-11.316h-0.393l-4.91,11.316H225.846z"/>
		<path fill="#282828" d="M261.154,45.401c-2.227-1.714-4.936-2.57-8.131-2.57c-2.277,0-3.966,0.323-5.065,0.97
			s-1.649,1.631-1.649,2.953c0,0.842,0.255,1.532,0.766,2.073s1.237,0.887,2.18,1.037l8.68,1.442
			c2.723,0.422,4.832,1.263,6.324,2.525s2.238,3.051,2.238,5.365c0,3.456-1.25,5.914-3.75,7.371
			c-2.502,1.458-5.689,2.187-9.564,2.187c-2.278,0-4.432-0.271-6.461-0.812s-4.039-1.472-6.029-2.795l0.433-7.845l2.514,0.045
			l0.864,4.328c1.257,1.022,2.598,1.812,4.025,2.367c1.427,0.557,3.096,0.834,5.008,0.834c2.514,0,4.438-0.315,5.773-0.947
			c1.336-0.631,2.004-1.803,2.004-3.517c0-1.082-0.314-1.953-0.943-2.614s-1.531-1.082-2.711-1.263l-9.032-1.488
			c-2.253-0.36-4.046-1.142-5.381-2.344c-1.336-1.202-2.004-2.87-2.004-5.005c0-3.035,1.087-5.244,3.261-6.628
			c2.173-1.382,5.145-2.073,8.916-2.073c2.33,0,4.471,0.264,6.42,0.789c1.951,0.526,3.686,1.225,5.205,2.096l-0.393,7.98L262.254,50
			L261.154,45.401z"/>
		<path fill="#282828" d="M290.141,45.401c-2.227-1.714-4.937-2.57-8.131-2.57c-2.277,0-3.967,0.323-5.066,0.97
			s-1.649,1.631-1.649,2.953c0,0.842,0.255,1.532,0.766,2.073s1.237,0.887,2.18,1.037l8.681,1.442
			c2.723,0.422,4.831,1.263,6.323,2.525s2.239,3.051,2.239,5.365c0,3.456-1.251,5.914-3.751,7.371
			c-2.501,1.458-5.689,2.187-9.564,2.187c-2.277,0-4.432-0.271-6.461-0.812s-4.039-1.472-6.028-2.795l0.432-7.845l2.514,0.045
			l0.864,4.328c1.257,1.022,2.599,1.812,4.025,2.367c1.427,0.557,3.097,0.834,5.008,0.834c2.514,0,4.438-0.315,5.773-0.947
			c1.336-0.631,2.004-1.803,2.004-3.517c0-1.082-0.314-1.953-0.943-2.614c-0.628-0.661-1.531-1.082-2.71-1.263l-9.033-1.488
			c-2.252-0.36-4.046-1.142-5.381-2.344c-1.336-1.202-2.003-2.87-2.003-5.005c0-3.035,1.086-5.244,3.26-6.628
			c2.173-1.382,5.146-2.073,8.916-2.073c2.33,0,4.471,0.264,6.421,0.789c1.951,0.526,3.686,1.225,5.204,2.096l-0.393,7.98L291.24,50
			L290.141,45.401z"/>
		<path fill="#282828" d="M310.249,42.876l-3.417,0.812l7.188,11.452h0.354l6.756-11.227l-4.281-1.037l0.196-2.75h12.137l0.196,2.75
			l-3.85,0.947l-9.505,15.104v5.004l3.85,0.947l-0.196,2.75h-12.098l-0.196-2.75l3.849-0.947v-5.095l-10.683-15.104l-3.653-0.856
			l0.197-2.75h12.961L310.249,42.876z"/>
		<path fill="#282828" d="M368.731,39.855l0.275,0.181l-0.511,9.197l-3.103-0.181l-0.354-5.095h-12.883v7.033h7.227l1.218-3.291
			l2.435,0.226v10.865l-2.553,0.226l-1.1-4.238h-7.227v9.018h12.961l1.571-6.357l3.142,0.315l-0.785,9.874h-25.333l-0.196-2.75
			l3.849-0.947V43.823l-3.849-0.947l0.196-2.75h18.146L368.731,39.855z"/>
		<path fill="#282828" d="M380.338,39.72c2.265-0.149,4.968-0.225,8.11-0.225c4.425,0,7.953,1.21,10.585,3.629
			c2.632,2.42,3.947,5.944,3.947,10.572c0,3.127-0.608,5.765-1.826,7.913c-1.218,2.149-2.913,3.765-5.087,4.847
			c-2.173,1.082-4.713,1.623-7.619,1.623c-3.143,0-5.846-0.076-8.11-0.226c-2.266-0.151-4.615-0.406-7.051-0.767l0.196-2.841
			l3.85-0.36V43.732l-3.85-0.405l-0.196-2.841C375.723,40.126,378.072,39.871,380.338,39.72z M388.409,64.427
			c3.089,0,5.479-0.871,7.168-2.615c1.688-1.742,2.533-4.447,2.533-8.115c0-7.033-3.234-10.55-9.701-10.55
			c-2.331,0-4.426,0.196-6.284,0.586v20.108C383.983,64.231,386.078,64.427,388.409,64.427z"/>
		<path fill="#282828" d="M416.57,42.876l-3.81,0.947v12.804c0,2.766,0.746,4.84,2.238,6.222c1.493,1.383,3.43,2.074,5.813,2.074
			c2.225,0,3.999-0.759,5.321-2.276s1.983-3.765,1.983-6.74V43.732l-3.691-0.856l0.196-2.75h10.723l0.196,2.75l-3.339,0.856v11.723
			c0,2.855-0.53,5.282-1.591,7.281s-2.487,3.502-4.281,4.509c-1.793,1.006-3.777,1.51-5.95,1.51c-2.435,0-4.589-0.488-6.461-1.465
			s-3.338-2.457-4.398-4.441c-1.061-1.983-1.591-4.418-1.591-7.304V43.823l-3.85-0.947l0.196-2.75h12.098L416.57,42.876z"/>
	</g>
	<g>
		<path fill="#282828" d="M315.525,12.719c-0.945-0.629-1.998-0.944-3.158-0.944c-1.031,0-1.834,0.139-2.406,0.415
			c-0.573,0.276-0.859,0.757-0.859,1.445c0,0.374,0.078,0.678,0.236,0.915c0.157,0.236,0.43,0.393,0.816,0.472l4.533,1.003
			c1.103,0.256,1.969,0.748,2.601,1.476c0.63,0.728,0.945,1.731,0.945,3.009c0,1.693-0.501,2.917-1.505,3.674
			c-1.002,0.756-2.436,1.136-4.297,1.136c-2.248,0-4.146-0.483-5.694-1.445l0.107-4.426h1.482l0.322,2.39
			c1.146,0.728,2.406,1.091,3.782,1.091c1.231,0,2.102-0.171,2.61-0.517c0.507-0.343,0.763-0.851,0.763-1.519
			c0-0.512-0.122-0.915-0.365-1.209c-0.244-0.296-0.623-0.492-1.139-0.591l-4.363-0.943c-0.986-0.216-1.757-0.683-2.309-1.402
			c-0.551-0.718-0.827-1.636-0.827-2.759c0-3.067,1.854-4.603,5.565-4.603c1.934,0,3.646,0.413,5.137,1.24l-0.216,4.75h-1.461
			L315.525,12.719z"/>
		<path fill="#282828" d="M323.97,10.063v12.57l1.524,0.294l-0.085,1.8h-5.501l-0.107-1.8l1.547-0.294V12.1l-1.332-0.177
			l-0.107-1.771l3.889-0.295L323.97,10.063z M323.872,4.708c0.337,0.384,0.506,0.861,0.506,1.431c0,0.571-0.169,1.048-0.506,1.431
			s-0.748,0.575-1.234,0.575c-0.473,0-0.879-0.192-1.215-0.575s-0.505-0.86-0.505-1.431c0-0.57,0.169-1.047,0.505-1.431
			s0.742-0.575,1.215-0.575C323.124,4.134,323.535,4.325,323.872,4.708z"/>
		<path fill="#282828" d="M330.564,11.598c0.56-0.708,1.24-1.253,2.042-1.638c0.802-0.383,1.662-0.575,2.578-0.575
			c1.776,0,3.127,0.621,4.051,1.859c0.924,1.239,1.386,2.893,1.386,4.957v6.433l1.526,0.294l-0.108,1.8h-5.457l-0.108-1.8
			l1.547-0.294v-6.728c0-1.318-0.257-2.327-0.773-3.024c-0.516-0.698-1.346-1.047-2.492-1.047c-0.759,0-1.437,0.138-2.03,0.413
			c-0.594,0.276-1.129,0.7-1.601,1.27v9.117l1.524,0.294l-0.107,1.8h-5.458l-0.106-1.8l1.526-0.294V12.159l-1.42-0.119l-0.106-1.798
			l3.029-0.415L330.564,11.598z"/>
		<path fill="#282828" d="M353.232,16.821l-0.407-4.25c-0.902-0.551-1.878-0.827-2.923-0.827c-1.303,0-2.328,0.512-3.072,1.535
			c-0.745,1.023-1.117,2.38-1.117,4.071c0,1.693,0.34,3.049,1.021,4.073c0.68,1.021,1.664,1.533,2.953,1.533
			c0.99,0,1.795-0.133,2.418-0.398c0.623-0.265,1.287-0.742,1.986-1.43l0.924,2.124c-0.744,0.728-1.557,1.253-2.438,1.578
			c-0.882,0.325-1.845,0.488-2.891,0.488c-1.345,0-2.517-0.355-3.514-1.063c-0.995-0.708-1.757-1.668-2.288-2.877
			c-0.528-1.209-0.793-2.552-0.793-4.027s0.275-2.822,0.826-4.042c0.552-1.22,1.342-2.178,2.374-2.877
			c1.031-0.698,2.234-1.047,3.609-1.047c2.049,0,3.782,0.502,5.201,1.505l-0.302,5.931H353.232z"/>
		<path fill="#282828" d="M359.593,18.384c0.116,1.496,0.503,2.631,1.161,3.409c0.658,0.777,1.568,1.164,2.729,1.164
			c1.002,0,1.816-0.122,2.439-0.369c0.623-0.246,1.277-0.702,1.965-1.372l0.924,2.125c-0.76,0.728-1.546,1.239-2.363,1.534
			c-0.815,0.295-1.805,0.443-2.965,0.443c-1.36,0-2.534-0.355-3.523-1.063c-0.988-0.708-1.74-1.668-2.257-2.877
			c-0.516-1.209-0.772-2.552-0.772-4.027c0-1.494,0.264-2.846,0.794-4.056c0.531-1.211,1.304-2.163,2.32-2.863
			c1.019-0.698,2.214-1.047,3.589-1.047c1.935,0,3.444,0.699,4.534,2.095c1.088,1.397,1.632,3.305,1.632,5.725
			c0,0.511-0.035,0.954-0.106,1.327l-0.129,0.178h-5.522L359.593,18.384z M366.169,12.837c-0.615-0.728-1.461-1.093-2.536-1.093
			c-1.175,0-2.102,0.385-2.782,1.152c-0.681,0.766-1.101,1.888-1.258,3.363h7.585C367.121,14.706,366.784,13.565,366.169,12.837z"/>
		<path fill="#282828" d="M384.885,22.928v1.8h-6.812v-1.8l2.32-0.619V11.273c-0.401,0.139-0.783,0.236-1.149,0.296
			c-0.365,0.059-0.813,0.088-1.344,0.088l-0.193-1.8c0.817-0.177,1.545-0.536,2.182-1.077c0.639-0.542,1.207-1.264,1.707-2.169
			l1.42,0.296v15.402L384.885,22.928z"/>
		<path fill="#282828" d="M389.955,21.896c1.104,0.845,2.314,1.267,3.633,1.267c1.389,0,2.488-0.457,3.298-1.37
			c0.808-0.917,1.277-2.336,1.407-4.264c-0.674,0.432-1.4,0.761-2.183,0.987c-0.778,0.227-1.679,0.339-2.696,0.339
			c-1.818,0-3.318-0.502-4.5-1.505c-1.184-1.003-1.774-2.517-1.774-4.543c0-2.399,0.642-4.135,1.925-5.208
			c1.281-1.073,2.882-1.608,4.802-1.608c2.191,0,3.928,0.801,5.211,2.405c1.281,1.603,1.922,3.998,1.922,7.184
			c0,2.104-0.332,3.899-0.999,5.384c-0.665,1.485-1.563,2.606-2.685,3.364c-1.125,0.757-2.367,1.136-3.728,1.136
			c-1.147,0-2.184-0.103-3.105-0.31c-0.924-0.206-1.795-0.536-2.611-0.989l-0.15-4.662l1.332-0.118L389.955,21.896z M397.208,10.049
			c-0.738-1.053-1.852-1.579-3.342-1.579c-1.404,0-2.442,0.345-3.115,1.033c-0.674,0.688-1.011,1.76-1.011,3.215
			c0,1.201,0.337,2.091,1.011,2.671c0.673,0.581,1.726,0.87,3.159,0.87c0.945,0,1.77-0.079,2.469-0.236
			c0.703-0.156,1.384-0.422,2.043-0.797C398.349,12.828,397.945,11.102,397.208,10.049z"/>
		<path fill="#282828" d="M406.178,21.896c1.104,0.845,2.313,1.267,3.631,1.267c1.39,0,2.488-0.457,3.299-1.37
			c0.808-0.917,1.277-2.336,1.406-4.264c-0.674,0.432-1.399,0.761-2.181,0.987c-0.78,0.227-1.679,0.339-2.696,0.339
			c-1.818,0-3.32-0.502-4.501-1.505c-1.184-1.003-1.774-2.517-1.774-4.543c0-2.399,0.642-4.135,1.924-5.208
			c1.281-1.073,2.883-1.608,4.803-1.608c2.191,0,3.928,0.801,5.211,2.405c1.281,1.603,1.922,3.998,1.922,7.184
			c0,2.104-0.332,3.899-0.999,5.384c-0.665,1.485-1.562,2.606-2.685,3.364c-1.125,0.757-2.367,1.136-3.729,1.136
			c-1.146,0-2.183-0.103-3.104-0.31c-0.926-0.206-1.796-0.536-2.612-0.989l-0.15-4.662l1.333-0.118L406.178,21.896z M413.43,10.049
			c-0.738-1.053-1.852-1.579-3.342-1.579c-1.404,0-2.442,0.345-3.115,1.033c-0.674,0.688-1.011,1.76-1.011,3.215
			c0,1.201,0.337,2.091,1.011,2.671c0.673,0.581,1.726,0.87,3.158,0.87c0.946,0,1.77-0.079,2.47-0.236
			c0.703-0.156,1.384-0.422,2.042-0.797C414.571,12.828,414.166,11.102,413.43,10.049z"/>
		<path fill="#282828" d="M429.983,9.562c-1.103-0.846-2.313-1.268-3.63-1.268c-1.42,0-2.525,0.432-3.32,1.297
			c-0.795,0.866-1.257,2.312-1.386,4.337c0.672-0.433,1.4-0.762,2.181-0.988c0.78-0.226,1.68-0.339,2.695-0.339
			c1.849,0,3.356,0.478,4.523,1.43c1.168,0.955,1.751,2.435,1.751,4.441c0,2.419-0.637,4.188-1.912,5.311
			c-1.275,1.121-2.857,1.682-4.748,1.682c-1.433,0-2.688-0.369-3.771-1.107c-1.082-0.737-1.925-1.848-2.524-3.333
			c-0.603-1.485-0.904-3.3-0.904-5.444c0-2.105,0.335-3.875,0.999-5.312c0.668-1.434,1.561-2.507,2.676-3.215
			c1.118-0.708,2.364-1.063,3.74-1.063c1.145,0,2.18,0.103,3.104,0.31c0.925,0.206,1.794,0.537,2.611,0.989l-0.15,4.956
			l-1.334,0.119L429.983,9.562z M422.754,21.408c0.751,1.053,1.879,1.578,3.384,1.578c1.39,0,2.413-0.353,3.073-1.061
			c0.656-0.71,0.988-1.8,0.988-3.276c0-1.2-0.334-2.074-1.001-2.625c-0.665-0.551-1.723-0.827-3.168-0.827
			c-0.945,0-1.77,0.079-2.472,0.236c-0.703,0.158-1.383,0.424-2.04,0.797C421.589,18.63,422.001,20.357,422.754,21.408z"/>
	</g>
</g>
<g>
	<circle fill="#282828" cx="41.445" cy="41.444" r="37.222"/>
	<path fill="#282828" d="M41.444,82.889C18.592,82.889,0,64.297,0,41.444S18.592,0,41.444,0s41.444,18.592,41.444,41.444
		S64.297,82.889,41.444,82.889z M41.444,1C19.144,1,1,19.143,1,41.444c0,22.302,18.144,40.444,40.444,40.444
		s40.444-18.143,40.444-40.444C81.889,19.143,63.745,1,41.444,1z"/>
	<g>
		<g>
			<path fill="#FFFFFF" d="M43.238,6.89c-0.005,0.137-0.054,0.247-0.144,0.332c-0.098,0.09-0.218,0.129-0.367,0.123
				c-0.149-0.005-0.267-0.053-0.351-0.151c-0.097-0.091-0.136-0.205-0.13-0.342C42.251,6.72,42.3,6.61,42.404,6.514
				c0.09-0.084,0.21-0.129,0.36-0.124c0.148,0.005,0.267,0.06,0.356,0.151C43.204,6.645,43.243,6.759,43.238,6.89z"/>
			<path fill="#FFFFFF" d="M45.937,7.139c-0.016,0.137-0.072,0.243-0.169,0.319c-0.104,0.083-0.226,0.112-0.375,0.094
				c-0.149-0.018-0.262-0.074-0.337-0.177c-0.09-0.099-0.119-0.215-0.104-0.351c0.017-0.13,0.073-0.237,0.183-0.325
				c0.098-0.077,0.221-0.112,0.37-0.095c0.147,0.018,0.26,0.081,0.343,0.178C45.921,6.893,45.952,7.009,45.937,7.139z"/>
			<path fill="#FFFFFF" d="M48.606,7.597c-0.027,0.134-0.092,0.236-0.194,0.305c-0.11,0.074-0.233,0.094-0.382,0.064
				c-0.147-0.029-0.254-0.095-0.322-0.204c-0.08-0.105-0.102-0.224-0.074-0.358c0.025-0.128,0.09-0.23,0.207-0.309
				c0.102-0.068,0.228-0.094,0.375-0.065c0.146,0.029,0.254,0.101,0.328,0.205C48.61,7.351,48.632,7.469,48.606,7.597z"/>
			<path fill="#FFFFFF" d="M51.231,8.264c-0.036,0.132-0.108,0.229-0.217,0.289c-0.115,0.065-0.241,0.075-0.385,0.035
				c-0.145-0.041-0.247-0.115-0.305-0.229c-0.073-0.111-0.084-0.231-0.048-0.363c0.035-0.126,0.107-0.223,0.23-0.292
				c0.107-0.061,0.235-0.077,0.38-0.036c0.145,0.04,0.245,0.121,0.311,0.229C51.256,8.018,51.268,8.138,51.231,8.264z"/>
			<path fill="#FFFFFF" d="M53.793,9.134c-0.047,0.129-0.128,0.219-0.239,0.271c-0.121,0.056-0.246,0.056-0.387,0.004
				c-0.141-0.051-0.237-0.134-0.286-0.251c-0.063-0.116-0.065-0.236-0.019-0.366c0.045-0.123,0.125-0.214,0.252-0.273
				c0.113-0.051,0.241-0.058,0.382-0.005c0.14,0.051,0.235,0.139,0.292,0.254C53.836,8.89,53.838,9.011,53.793,9.134z"/>
			<path fill="#FFFFFF" d="M56.288,10.207c-0.058,0.125-0.144,0.208-0.26,0.25c-0.124,0.046-0.25,0.036-0.387-0.026
				c-0.136-0.062-0.225-0.152-0.266-0.273c-0.054-0.121-0.046-0.241,0.012-0.366c0.055-0.12,0.142-0.203,0.273-0.252
				c0.116-0.042,0.244-0.039,0.38,0.024c0.137,0.063,0.224,0.158,0.271,0.277C56.351,9.967,56.343,10.088,56.288,10.207z"/>
			<path fill="#FFFFFF" d="M58.682,11.469c-0.067,0.12-0.16,0.196-0.279,0.23c-0.127,0.036-0.251,0.016-0.383-0.057
				c-0.13-0.073-0.213-0.169-0.242-0.294c-0.045-0.125-0.028-0.244,0.039-0.364c0.063-0.115,0.157-0.191,0.292-0.23
				c0.119-0.033,0.247-0.019,0.378,0.054s0.21,0.174,0.249,0.296C58.763,11.235,58.747,11.354,58.682,11.469z"/>
			<path fill="#FFFFFF" d="M60.97,12.914c-0.076,0.114-0.174,0.184-0.295,0.208c-0.13,0.026-0.253-0.003-0.378-0.086
				c-0.124-0.083-0.198-0.186-0.219-0.312c-0.035-0.128-0.009-0.246,0.067-0.36c0.072-0.109,0.17-0.178,0.309-0.205
				c0.123-0.025,0.248,0,0.373,0.083c0.124,0.083,0.195,0.19,0.225,0.315C61.069,12.687,61.043,12.804,60.97,12.914z"/>
			<path fill="#FFFFFF" d="M63.141,14.537c-0.085,0.107-0.188,0.169-0.312,0.183c-0.131,0.016-0.251-0.023-0.369-0.116
				c-0.117-0.092-0.184-0.2-0.194-0.327c-0.024-0.131,0.011-0.246,0.096-0.353c0.081-0.104,0.185-0.165,0.325-0.182
				c0.122-0.015,0.247,0.02,0.363,0.112c0.117,0.093,0.18,0.205,0.2,0.332C63.257,14.318,63.222,14.433,63.141,14.537z"/>
			<path fill="#FFFFFF" d="M65.181,16.322c-0.093,0.101-0.201,0.154-0.324,0.16c-0.133,0.005-0.25-0.043-0.359-0.145
				s-0.167-0.214-0.168-0.341c-0.015-0.132,0.029-0.244,0.121-0.346c0.09-0.096,0.197-0.149,0.339-0.155
				c0.122-0.005,0.244,0.038,0.354,0.139c0.109,0.102,0.164,0.219,0.173,0.347C65.313,16.114,65.27,16.226,65.181,16.322z"/>
			<path fill="#FFFFFF" d="M67.07,18.257c-0.101,0.093-0.213,0.138-0.336,0.133c-0.132-0.005-0.245-0.062-0.347-0.172
				c-0.103-0.109-0.15-0.226-0.142-0.354c-0.004-0.132,0.048-0.241,0.149-0.334c0.096-0.089,0.207-0.133,0.348-0.128
				c0.124,0.004,0.242,0.057,0.343,0.167c0.103,0.109,0.146,0.23,0.146,0.358C67.218,18.059,67.166,18.167,67.07,18.257z"/>
			<path fill="#FFFFFF" d="M68.809,20.338c-0.107,0.085-0.223,0.122-0.345,0.107c-0.132-0.016-0.24-0.081-0.332-0.198
				c-0.094-0.117-0.134-0.237-0.115-0.364c0.007-0.132,0.067-0.236,0.176-0.321c0.103-0.082,0.217-0.117,0.357-0.101
				c0.123,0.014,0.235,0.076,0.329,0.193c0.093,0.118,0.128,0.241,0.117,0.369C68.973,20.153,68.911,20.256,68.809,20.338z"/>
			<path fill="#FFFFFF" d="M70.378,22.547c-0.114,0.077-0.231,0.104-0.353,0.08c-0.13-0.025-0.232-0.099-0.315-0.223
				c-0.084-0.124-0.114-0.246-0.086-0.371c0.018-0.131,0.086-0.231,0.199-0.307c0.109-0.074,0.227-0.1,0.365-0.073
				c0.121,0.023,0.229,0.094,0.313,0.218c0.083,0.125,0.108,0.25,0.088,0.376C70.556,22.375,70.487,22.474,70.378,22.547z"/>
			<path fill="#FFFFFF" d="M71.768,24.869c-0.119,0.068-0.237,0.085-0.358,0.052c-0.126-0.035-0.224-0.117-0.297-0.247
				c-0.074-0.13-0.094-0.255-0.056-0.376c0.027-0.13,0.104-0.223,0.224-0.292c0.113-0.064,0.232-0.082,0.369-0.044
				c0.118,0.033,0.22,0.112,0.294,0.242c0.073,0.13,0.089,0.258,0.059,0.382C71.958,24.712,71.882,24.805,71.768,24.869z"/>
			<path fill="#FFFFFF" d="M72.975,27.298c-0.124,0.058-0.244,0.065-0.361,0.023c-0.123-0.045-0.213-0.134-0.276-0.27
				c-0.063-0.136-0.073-0.262-0.025-0.381c0.037-0.127,0.121-0.214,0.244-0.272c0.119-0.056,0.24-0.063,0.372-0.015
				c0.116,0.042,0.212,0.129,0.274,0.265c0.063,0.135,0.067,0.264,0.028,0.386C73.178,27.156,73.095,27.243,72.975,27.298z"/>
			<path fill="#FFFFFF" d="M73.986,29.811c-0.129,0.048-0.249,0.046-0.362-0.004c-0.12-0.056-0.203-0.151-0.255-0.292
				c-0.053-0.14-0.053-0.266,0.005-0.381c0.046-0.124,0.137-0.205,0.265-0.252c0.123-0.045,0.243-0.043,0.371,0.015
				c0.113,0.051,0.201,0.145,0.253,0.285c0.053,0.14,0.048,0.269-0.001,0.387C74.199,29.685,74.108,29.764,73.986,29.811z"/>
			<path fill="#FFFFFF" d="M74.794,32.396c-0.131,0.038-0.252,0.027-0.359-0.034c-0.115-0.063-0.189-0.166-0.232-0.31
				c-0.041-0.144-0.031-0.27,0.035-0.379c0.057-0.12,0.153-0.193,0.285-0.23c0.125-0.036,0.246-0.025,0.369,0.044
				c0.107,0.06,0.188,0.16,0.229,0.304c0.041,0.144,0.025,0.272-0.032,0.386C75.017,32.287,74.921,32.36,74.794,32.396z"/>
			<path fill="#FFFFFF" d="M75.399,35.036c-0.135,0.027-0.254,0.006-0.356-0.062c-0.109-0.073-0.177-0.18-0.207-0.327
				c-0.029-0.147-0.01-0.271,0.064-0.376c0.066-0.115,0.168-0.18,0.302-0.207c0.129-0.026,0.247-0.005,0.365,0.073
				c0.103,0.068,0.176,0.174,0.205,0.321c0.029,0.146,0.004,0.272-0.063,0.382C75.63,34.945,75.528,35.01,75.399,35.036z"/>
			<path fill="#FFFFFF" d="M75.792,37.719c-0.135,0.017-0.251-0.013-0.349-0.089c-0.104-0.082-0.162-0.194-0.181-0.342
				s0.011-0.271,0.094-0.37c0.074-0.109,0.181-0.166,0.316-0.183c0.131-0.016,0.246,0.014,0.357,0.101
				c0.099,0.076,0.161,0.188,0.18,0.336c0.019,0.149-0.017,0.272-0.092,0.376C76.028,37.646,75.924,37.704,75.792,37.719z"/>
			<path fill="#FFFFFF" d="M75.978,40.421c-0.138,0.006-0.252-0.033-0.343-0.116c-0.098-0.089-0.146-0.206-0.153-0.355
				c-0.006-0.149,0.031-0.27,0.123-0.361c0.081-0.104,0.192-0.152,0.328-0.158c0.133-0.005,0.246,0.033,0.35,0.128
				c0.092,0.083,0.146,0.199,0.152,0.349c0.008,0.149-0.038,0.27-0.121,0.368C76.218,40.367,76.106,40.416,75.978,40.421z"/>
			<path fill="#FFFFFF" d="M75.952,43.129c-0.137-0.005-0.248-0.053-0.332-0.143c-0.091-0.096-0.13-0.216-0.125-0.366
				c0.005-0.149,0.053-0.267,0.15-0.351c0.09-0.097,0.203-0.136,0.341-0.132c0.132,0.004,0.241,0.052,0.338,0.155
				c0.085,0.09,0.13,0.21,0.124,0.36c-0.005,0.15-0.057,0.266-0.147,0.357C76.196,43.094,76.083,43.133,75.952,43.129z"/>
			<path fill="#FFFFFF" d="M75.719,45.825c-0.137-0.016-0.243-0.071-0.321-0.167c-0.082-0.104-0.112-0.227-0.096-0.375
				c0.018-0.149,0.073-0.262,0.177-0.338c0.097-0.09,0.214-0.121,0.35-0.105c0.131,0.015,0.237,0.07,0.326,0.18
				c0.076,0.098,0.112,0.221,0.097,0.369c-0.018,0.148-0.081,0.261-0.178,0.345C75.965,45.809,75.849,45.84,75.719,45.825z"/>
			<path fill="#FFFFFF" d="M75.274,48.499c-0.135-0.026-0.236-0.089-0.306-0.192c-0.075-0.109-0.096-0.233-0.067-0.381
				c0.028-0.146,0.094-0.256,0.202-0.323c0.105-0.081,0.224-0.104,0.358-0.077c0.128,0.024,0.23,0.088,0.309,0.205
				c0.07,0.103,0.098,0.229,0.069,0.376c-0.028,0.146-0.101,0.253-0.204,0.329C75.521,48.502,75.403,48.523,75.274,48.499z"/>
			<path fill="#FFFFFF" d="M74.62,51.129c-0.132-0.036-0.229-0.107-0.291-0.215c-0.064-0.115-0.075-0.241-0.035-0.386
				c0.04-0.144,0.113-0.247,0.227-0.306c0.11-0.073,0.23-0.086,0.363-0.049c0.126,0.034,0.223,0.106,0.293,0.229
				c0.061,0.107,0.077,0.235,0.037,0.379c-0.039,0.145-0.119,0.246-0.229,0.313C74.866,51.152,74.747,51.164,74.62,51.129z"/>
			<path fill="#FFFFFF" d="M73.765,53.697c-0.13-0.047-0.221-0.126-0.273-0.238c-0.055-0.12-0.056-0.246-0.006-0.387
				c0.052-0.141,0.133-0.238,0.25-0.289c0.117-0.063,0.236-0.065,0.365-0.02c0.123,0.045,0.215,0.124,0.274,0.252
				c0.052,0.112,0.06,0.24,0.009,0.381s-0.139,0.234-0.252,0.294C74.007,53.738,73.888,53.74,73.765,53.697z"/>
			<path fill="#FFFFFF" d="M72.705,56.193c-0.125-0.058-0.209-0.145-0.253-0.26c-0.046-0.123-0.036-0.249,0.025-0.387
				c0.062-0.137,0.15-0.226,0.272-0.267c0.12-0.054,0.239-0.048,0.366,0.009c0.119,0.055,0.203,0.141,0.252,0.271
				c0.044,0.117,0.041,0.245-0.021,0.382c-0.063,0.136-0.156,0.224-0.274,0.272C72.945,56.252,72.825,56.246,72.705,56.193z"/>
			<path fill="#FFFFFF" d="M71.456,58.593c-0.119-0.065-0.196-0.158-0.23-0.276c-0.037-0.129-0.018-0.254,0.056-0.385
				c0.071-0.131,0.167-0.213,0.291-0.244c0.124-0.044,0.244-0.027,0.364,0.039c0.114,0.062,0.191,0.154,0.23,0.289
				c0.035,0.119,0.021,0.246-0.051,0.379c-0.073,0.131-0.175,0.21-0.296,0.25C71.691,58.674,71.571,58.656,71.456,58.593z"/>
			<path fill="#FFFFFF" d="M70.022,60.891c-0.113-0.075-0.185-0.175-0.209-0.295c-0.026-0.129,0.002-0.253,0.085-0.377
				c0.082-0.125,0.184-0.199,0.31-0.223c0.128-0.035,0.246-0.01,0.36,0.066c0.109,0.072,0.179,0.17,0.207,0.309
				c0.026,0.121,0.002,0.248-0.08,0.372c-0.083,0.125-0.19,0.196-0.314,0.228C70.249,60.988,70.132,60.962,70.022,60.891z"/>
			<path fill="#FFFFFF" d="M68.412,63.071c-0.108-0.084-0.171-0.188-0.185-0.31c-0.017-0.132,0.021-0.252,0.113-0.37
				s0.199-0.185,0.326-0.197c0.13-0.024,0.246,0.01,0.355,0.094c0.103,0.081,0.164,0.184,0.182,0.325
				c0.016,0.122-0.018,0.246-0.11,0.363c-0.091,0.12-0.204,0.182-0.329,0.201C68.632,63.188,68.516,63.152,68.412,63.071z"/>
			<path fill="#FFFFFF" d="M66.641,65.115c-0.101-0.093-0.155-0.199-0.161-0.324c-0.007-0.132,0.042-0.248,0.143-0.359
				c0.1-0.111,0.213-0.168,0.341-0.17c0.132-0.016,0.244,0.029,0.346,0.121c0.097,0.088,0.15,0.195,0.157,0.336
				c0.006,0.124-0.038,0.246-0.139,0.355c-0.101,0.111-0.217,0.164-0.345,0.176C66.851,65.247,66.737,65.203,66.641,65.115z"/>
			<path fill="#FFFFFF" d="M64.712,67.019c-0.094-0.1-0.139-0.212-0.136-0.335c0.005-0.133,0.062-0.244,0.171-0.348
				c0.107-0.102,0.225-0.152,0.352-0.143c0.133-0.006,0.242,0.047,0.336,0.146c0.09,0.096,0.136,0.207,0.131,0.348
				c-0.004,0.124-0.057,0.242-0.165,0.344c-0.11,0.103-0.23,0.147-0.358,0.147C64.91,67.166,64.802,67.115,64.712,67.019z"/>
			<path fill="#FFFFFF" d="M62.639,68.768c-0.086-0.105-0.122-0.221-0.108-0.344c0.014-0.132,0.08-0.24,0.196-0.334
				s0.237-0.134,0.363-0.115c0.132,0.006,0.237,0.066,0.322,0.174c0.083,0.102,0.118,0.217,0.103,0.357
				c-0.014,0.123-0.074,0.235-0.191,0.33c-0.116,0.093-0.24,0.128-0.367,0.117C62.824,68.932,62.722,68.871,62.639,68.768z"/>
			<path fill="#FFFFFF" d="M60.443,70.346c-0.078-0.113-0.104-0.23-0.081-0.352c0.024-0.13,0.098-0.233,0.222-0.316
				c0.124-0.084,0.246-0.115,0.371-0.088c0.132,0.016,0.231,0.084,0.308,0.197c0.074,0.109,0.102,0.226,0.075,0.365
				c-0.022,0.121-0.093,0.229-0.216,0.313c-0.124,0.086-0.25,0.109-0.377,0.092C60.616,70.522,60.517,70.455,60.443,70.346z"/>
			<path fill="#FFFFFF" d="M58.124,71.751c-0.068-0.12-0.087-0.239-0.053-0.357c0.033-0.128,0.115-0.226,0.245-0.299
				c0.13-0.074,0.255-0.096,0.376-0.058c0.131,0.026,0.225,0.102,0.293,0.221c0.064,0.114,0.083,0.232,0.046,0.371
				c-0.032,0.117-0.11,0.219-0.241,0.293c-0.129,0.074-0.257,0.091-0.382,0.063C58.284,71.94,58.188,71.864,58.124,71.751z"/>
			<path fill="#FFFFFF" d="M55.704,72.969c-0.059-0.123-0.067-0.243-0.025-0.359c0.045-0.125,0.133-0.215,0.268-0.279
				c0.137-0.063,0.262-0.074,0.381-0.027c0.127,0.037,0.215,0.119,0.273,0.244c0.056,0.117,0.064,0.238,0.018,0.371
				c-0.042,0.116-0.129,0.211-0.264,0.275c-0.135,0.063-0.264,0.07-0.386,0.031C55.848,73.172,55.761,73.088,55.704,72.969z"/>
			<path fill="#FFFFFF" d="M53.191,73.996c-0.049-0.127-0.048-0.248,0.004-0.361c0.054-0.119,0.149-0.203,0.289-0.258
				c0.141-0.053,0.267-0.054,0.382,0.004c0.125,0.045,0.204,0.136,0.253,0.264c0.048,0.122,0.046,0.244-0.013,0.373
				c-0.051,0.111-0.143,0.2-0.283,0.253c-0.141,0.054-0.269,0.048-0.388,0C53.318,74.209,53.238,74.118,53.191,73.996z"/>
			<path fill="#FFFFFF" d="M50.612,74.818c-0.039-0.132-0.028-0.252,0.031-0.359c0.064-0.116,0.165-0.192,0.309-0.232
				c0.145-0.043,0.271-0.034,0.38,0.031c0.121,0.056,0.193,0.151,0.232,0.283c0.036,0.125,0.025,0.246-0.042,0.369
				c-0.06,0.109-0.159,0.189-0.303,0.232c-0.144,0.041-0.271,0.027-0.387-0.031C50.722,75.039,50.648,74.943,50.612,74.818z"/>
			<path fill="#FFFFFF" d="M47.976,75.437c-0.027-0.136-0.008-0.253,0.061-0.357c0.072-0.11,0.18-0.177,0.326-0.208
				c0.146-0.029,0.271-0.012,0.376,0.063c0.115,0.064,0.182,0.166,0.209,0.301c0.026,0.128,0.007,0.246-0.07,0.363
				c-0.067,0.104-0.175,0.178-0.32,0.207c-0.146,0.031-0.272,0.007-0.382-0.059C48.068,75.664,48.003,75.563,47.976,75.437z"/>
			<path fill="#FFFFFF" d="M45.297,75.844c-0.017-0.137,0.013-0.253,0.088-0.351c0.081-0.104,0.192-0.163,0.341-0.182
				c0.149-0.019,0.272,0.009,0.371,0.091c0.11,0.074,0.167,0.18,0.185,0.317c0.017,0.129-0.013,0.245-0.099,0.357
				c-0.076,0.097-0.188,0.163-0.336,0.182c-0.149,0.019-0.273-0.017-0.376-0.091C45.371,76.08,45.313,75.974,45.297,75.844z"/>
			<path fill="#FFFFFF" d="M42.601,76.043c-0.008-0.137,0.03-0.25,0.113-0.343c0.09-0.099,0.206-0.147,0.355-0.155
				c0.148-0.008,0.27,0.031,0.361,0.119c0.104,0.083,0.152,0.193,0.16,0.33c0.006,0.131-0.031,0.246-0.127,0.35
				c-0.084,0.092-0.199,0.146-0.348,0.154c-0.15,0.008-0.271-0.036-0.369-0.119C42.655,76.283,42.606,76.174,42.601,76.043z"/>
		</g>
		<g>
			<path fill="#FFFFFF" d="M39.771,6.542c0.089-0.091,0.206-0.146,0.355-0.151c0.148-0.005,0.27,0.04,0.36,0.124
				c0.104,0.096,0.151,0.206,0.156,0.337c0.007,0.137-0.034,0.251-0.13,0.342c-0.084,0.098-0.2,0.146-0.351,0.151
				c-0.148,0.006-0.269-0.033-0.367-0.123c-0.09-0.084-0.138-0.194-0.143-0.332C39.646,6.759,39.686,6.645,39.771,6.542z"/>
			<path fill="#FFFFFF" d="M37.043,6.783c0.083-0.098,0.194-0.161,0.343-0.178s0.273,0.018,0.371,0.095
				c0.109,0.088,0.166,0.194,0.181,0.325c0.017,0.136-0.014,0.252-0.103,0.351c-0.076,0.103-0.188,0.16-0.338,0.177
				c-0.147,0.018-0.271-0.012-0.375-0.094c-0.097-0.077-0.153-0.183-0.168-0.319C36.938,7.009,36.968,6.893,37.043,6.783z"/>
			<path fill="#FFFFFF" d="M34.347,7.235c0.074-0.104,0.182-0.176,0.328-0.205c0.146-0.029,0.271-0.003,0.374,0.065
				c0.118,0.079,0.183,0.181,0.208,0.309c0.026,0.135,0.006,0.253-0.075,0.358c-0.067,0.108-0.176,0.175-0.323,0.204
				c-0.146,0.029-0.271,0.009-0.381-0.064c-0.103-0.069-0.167-0.171-0.193-0.305C34.259,7.469,34.279,7.351,34.347,7.235z"/>
			<path fill="#FFFFFF" d="M31.691,7.898c0.066-0.109,0.167-0.189,0.311-0.229c0.145-0.041,0.272-0.024,0.38,0.036
				c0.123,0.069,0.195,0.165,0.231,0.292c0.036,0.132,0.025,0.251-0.048,0.363c-0.059,0.113-0.161,0.188-0.305,0.229
				c-0.145,0.04-0.271,0.03-0.385-0.035c-0.109-0.06-0.18-0.157-0.218-0.289C31.623,8.138,31.634,8.018,31.691,7.898z"/>
			<path fill="#FFFFFF" d="M29.102,8.767c0.058-0.115,0.151-0.203,0.292-0.254c0.141-0.052,0.269-0.046,0.381,0.005
				c0.129,0.059,0.207,0.15,0.253,0.273c0.048,0.129,0.046,0.25-0.018,0.366c-0.05,0.118-0.146,0.2-0.287,0.251
				c-0.14,0.052-0.266,0.052-0.386-0.004c-0.112-0.052-0.192-0.142-0.24-0.271C29.053,9.011,29.054,8.89,29.102,8.767z"/>
			<path fill="#FFFFFF" d="M26.577,9.841c0.049-0.119,0.135-0.214,0.271-0.277c0.137-0.063,0.265-0.066,0.381-0.024
				c0.133,0.049,0.219,0.132,0.273,0.252c0.058,0.125,0.065,0.245,0.011,0.366c-0.04,0.122-0.13,0.211-0.265,0.273
				c-0.138,0.063-0.264,0.073-0.388,0.026c-0.115-0.042-0.202-0.126-0.26-0.25C26.547,10.088,26.54,9.967,26.577,9.841z"/>
			<path fill="#FFFFFF" d="M24.155,11.105c0.039-0.122,0.118-0.223,0.248-0.296c0.131-0.073,0.259-0.087,0.377-0.054
				c0.137,0.039,0.23,0.115,0.293,0.23c0.068,0.12,0.084,0.239,0.04,0.364c-0.031,0.125-0.112,0.221-0.243,0.294
				c-0.131,0.073-0.256,0.092-0.384,0.057c-0.118-0.034-0.211-0.11-0.278-0.23C24.144,11.354,24.127,11.235,24.155,11.105z"/>
			<path fill="#FFFFFF" d="M21.839,12.555c0.029-0.125,0.1-0.232,0.225-0.315c0.124-0.083,0.25-0.107,0.371-0.083
				c0.14,0.027,0.237,0.096,0.311,0.205c0.076,0.115,0.103,0.232,0.066,0.36c-0.02,0.126-0.094,0.228-0.219,0.312
				c-0.125,0.083-0.247,0.112-0.377,0.086c-0.122-0.024-0.22-0.094-0.297-0.208C21.847,12.804,21.82,12.687,21.839,12.555z"/>
			<path fill="#FFFFFF" d="M19.64,14.186c0.021-0.126,0.083-0.239,0.2-0.332c0.116-0.092,0.241-0.126,0.364-0.112
				c0.141,0.017,0.243,0.078,0.324,0.182c0.085,0.107,0.12,0.222,0.096,0.353c-0.011,0.127-0.077,0.235-0.194,0.327
				c-0.118,0.092-0.237,0.131-0.369,0.116c-0.123-0.014-0.226-0.076-0.311-0.183C19.668,14.433,19.633,14.318,19.64,14.186z"/>
			<path fill="#FFFFFF" d="M17.573,15.981c0.01-0.128,0.063-0.245,0.174-0.347c0.11-0.101,0.23-0.145,0.354-0.139
				c0.141,0.005,0.248,0.059,0.337,0.155c0.094,0.102,0.137,0.213,0.123,0.346c-0.001,0.127-0.059,0.24-0.169,0.341
				c-0.109,0.102-0.228,0.149-0.358,0.145c-0.124-0.005-0.232-0.059-0.324-0.16C17.62,16.226,17.576,16.114,17.573,15.981z"/>
			<path fill="#FFFFFF" d="M15.657,17.927c0-0.128,0.045-0.249,0.146-0.358c0.102-0.11,0.219-0.163,0.342-0.167
				c0.142-0.005,0.254,0.039,0.35,0.128c0.101,0.093,0.152,0.202,0.149,0.334c0.009,0.127-0.039,0.244-0.143,0.354
				c-0.101,0.11-0.214,0.167-0.347,0.172c-0.123,0.004-0.235-0.04-0.336-0.133C15.724,18.167,15.671,18.059,15.657,17.927z"/>
			<path fill="#FFFFFF" d="M13.894,20.022c-0.01-0.128,0.024-0.251,0.117-0.369c0.094-0.117,0.207-0.179,0.329-0.193
				c0.14-0.016,0.255,0.019,0.358,0.101c0.107,0.085,0.168,0.189,0.175,0.321c0.019,0.127-0.021,0.247-0.114,0.364
				c-0.094,0.118-0.201,0.183-0.332,0.198c-0.123,0.015-0.238-0.021-0.346-0.107C13.979,20.256,13.918,20.153,13.894,20.022z"/>
			<path fill="#FFFFFF" d="M12.302,22.247c-0.021-0.126,0.004-0.252,0.087-0.376c0.085-0.124,0.192-0.194,0.313-0.218
				c0.139-0.027,0.257-0.001,0.365,0.073c0.114,0.076,0.183,0.176,0.199,0.307c0.028,0.125-0.001,0.247-0.085,0.371
				c-0.084,0.125-0.186,0.198-0.316,0.223c-0.121,0.024-0.238-0.002-0.352-0.08C12.404,22.474,12.336,22.375,12.302,22.247z"/>
			<path fill="#FFFFFF" d="M10.888,24.586c-0.029-0.125-0.016-0.252,0.06-0.382c0.073-0.13,0.175-0.209,0.294-0.242
				c0.137-0.038,0.255-0.02,0.369,0.044c0.119,0.068,0.196,0.161,0.223,0.292c0.038,0.122,0.018,0.247-0.057,0.376
				c-0.072,0.13-0.169,0.212-0.297,0.247c-0.117,0.033-0.238,0.016-0.357-0.052C11.009,24.805,10.932,24.712,10.888,24.586z"/>
			<path fill="#FFFFFF" d="M9.659,27.035c-0.04-0.122-0.035-0.25,0.027-0.386c0.064-0.136,0.159-0.222,0.275-0.265
				c0.133-0.048,0.253-0.041,0.372,0.015c0.124,0.058,0.208,0.145,0.245,0.272c0.048,0.119,0.038,0.245-0.025,0.381
				c-0.064,0.135-0.153,0.224-0.278,0.27c-0.115,0.042-0.235,0.035-0.36-0.023C9.797,27.243,9.713,27.156,9.659,27.035z"/>
			<path fill="#FFFFFF" d="M8.628,29.568c-0.049-0.118-0.054-0.247-0.002-0.387c0.053-0.141,0.141-0.234,0.254-0.285
				c0.129-0.059,0.249-0.061,0.371-0.015c0.129,0.048,0.219,0.128,0.266,0.252c0.057,0.115,0.057,0.241,0.004,0.381
				c-0.053,0.141-0.134,0.236-0.254,0.292c-0.113,0.051-0.234,0.052-0.362,0.004C8.782,29.764,8.692,29.685,8.628,29.568z"/>
			<path fill="#FFFFFF" d="M7.802,32.176c-0.059-0.114-0.072-0.242-0.033-0.386c0.042-0.144,0.122-0.244,0.23-0.304
				c0.123-0.069,0.244-0.08,0.369-0.044c0.132,0.037,0.228,0.11,0.285,0.23c0.064,0.11,0.074,0.235,0.033,0.379
				c-0.041,0.144-0.115,0.246-0.231,0.31c-0.108,0.061-0.228,0.072-0.36,0.034C7.97,32.36,7.874,32.287,7.802,32.176z"/>
			<path fill="#FFFFFF" d="M7.181,34.84c-0.067-0.11-0.093-0.235-0.063-0.382c0.03-0.147,0.103-0.253,0.205-0.321
				c0.118-0.078,0.237-0.099,0.364-0.073c0.136,0.027,0.236,0.092,0.303,0.207c0.075,0.104,0.094,0.229,0.064,0.376
				s-0.096,0.254-0.207,0.327c-0.103,0.068-0.222,0.089-0.356,0.062C7.362,35.01,7.261,34.945,7.181,34.84z"/>
			<path fill="#FFFFFF" d="M6.771,37.548c-0.074-0.104-0.11-0.227-0.091-0.376c0.018-0.148,0.081-0.26,0.179-0.336
				c0.11-0.087,0.228-0.117,0.358-0.101c0.136,0.017,0.242,0.074,0.316,0.183c0.082,0.098,0.11,0.221,0.093,0.37
				s-0.076,0.261-0.18,0.342c-0.097,0.076-0.214,0.106-0.351,0.089C6.967,37.704,6.86,37.646,6.771,37.548z"/>
			<path fill="#FFFFFF" d="M6.575,40.276c-0.081-0.098-0.127-0.218-0.121-0.368c0.008-0.15,0.063-0.266,0.153-0.349
				c0.104-0.095,0.219-0.134,0.349-0.128c0.139,0.006,0.247,0.054,0.33,0.158c0.09,0.091,0.129,0.211,0.123,0.361
				c-0.008,0.149-0.056,0.266-0.154,0.355c-0.09,0.083-0.205,0.122-0.342,0.116C6.782,40.416,6.673,40.367,6.575,40.276z"/>
			<path fill="#FFFFFF" d="M6.591,43.01c-0.091-0.091-0.145-0.207-0.15-0.357c-0.006-0.15,0.041-0.27,0.125-0.36
				c0.096-0.103,0.207-0.151,0.339-0.155c0.137-0.004,0.251,0.035,0.342,0.132c0.097,0.084,0.143,0.201,0.147,0.351
				C7.4,42.77,7.36,42.891,7.27,42.986c-0.084,0.09-0.195,0.138-0.332,0.143C6.807,43.133,6.692,43.094,6.591,43.01z"/>
			<path fill="#FFFFFF" d="M6.816,45.733c-0.097-0.084-0.16-0.196-0.177-0.345s0.02-0.271,0.097-0.369
				c0.088-0.109,0.194-0.165,0.325-0.18c0.137-0.016,0.252,0.016,0.351,0.105c0.103,0.076,0.159,0.188,0.177,0.338
				c0.016,0.148-0.015,0.271-0.096,0.375c-0.078,0.096-0.186,0.151-0.321,0.167C7.042,45.84,6.926,45.809,6.816,45.733z"/>
			<path fill="#FFFFFF" d="M7.254,48.436c-0.103-0.076-0.176-0.184-0.204-0.329c-0.027-0.147-0.001-0.273,0.068-0.376
				c0.079-0.117,0.182-0.181,0.311-0.205c0.134-0.027,0.253-0.004,0.357,0.077c0.108,0.067,0.174,0.177,0.201,0.323
				c0.028,0.147,0.009,0.271-0.065,0.381c-0.069,0.104-0.171,0.166-0.306,0.192C7.487,48.523,7.368,48.502,7.254,48.436z"/>
			<path fill="#FFFFFF" d="M7.903,51.094c-0.107-0.066-0.188-0.168-0.228-0.313c-0.04-0.144-0.022-0.271,0.038-0.379
				c0.07-0.122,0.166-0.194,0.293-0.229c0.132-0.037,0.252-0.024,0.362,0.049c0.113,0.059,0.188,0.162,0.227,0.306
				c0.04,0.145,0.03,0.271-0.036,0.386c-0.062,0.107-0.158,0.179-0.289,0.215C8.144,51.164,8.023,51.152,7.903,51.094z"/>
			<path fill="#FFFFFF" d="M8.759,53.69c-0.114-0.06-0.201-0.153-0.252-0.294c-0.052-0.141-0.045-0.269,0.008-0.381
				c0.061-0.128,0.15-0.207,0.274-0.252c0.128-0.046,0.249-0.044,0.364,0.02c0.118,0.051,0.199,0.148,0.251,0.289
				c0.05,0.141,0.05,0.267-0.005,0.387c-0.055,0.112-0.145,0.191-0.273,0.238C9.002,53.74,8.883,53.738,8.759,53.69z"/>
			<path fill="#FFFFFF" d="M9.818,56.215c-0.118-0.049-0.213-0.137-0.274-0.272c-0.063-0.137-0.066-0.265-0.022-0.382
				c0.05-0.131,0.134-0.217,0.253-0.271c0.125-0.057,0.246-0.063,0.366-0.009c0.121,0.041,0.21,0.13,0.272,0.267
				c0.062,0.138,0.07,0.264,0.023,0.387c-0.044,0.115-0.127,0.202-0.251,0.26C10.065,56.246,9.944,56.252,9.818,56.215z"/>
			<path fill="#FFFFFF" d="M11.069,58.645c-0.122-0.04-0.223-0.119-0.296-0.25c-0.071-0.133-0.085-0.26-0.051-0.379
				c0.039-0.135,0.116-0.228,0.231-0.289c0.12-0.066,0.239-0.083,0.363-0.039c0.125,0.031,0.22,0.113,0.293,0.244
				c0.072,0.131,0.091,0.256,0.055,0.385c-0.034,0.118-0.111,0.211-0.232,0.276C11.318,58.656,11.199,58.674,11.069,58.645z"/>
			<path fill="#FFFFFF" d="M12.51,60.971c-0.125-0.031-0.232-0.103-0.314-0.228c-0.082-0.124-0.105-0.251-0.081-0.372
				c0.028-0.139,0.099-0.236,0.207-0.309c0.114-0.076,0.232-0.102,0.36-0.066c0.126,0.023,0.229,0.098,0.31,0.223
				c0.083,0.124,0.111,0.248,0.086,0.377c-0.025,0.12-0.096,0.22-0.209,0.295C12.759,60.962,12.64,60.988,12.51,60.971z"/>
			<path fill="#FFFFFF" d="M14.126,63.178c-0.126-0.02-0.237-0.081-0.33-0.201c-0.092-0.117-0.126-0.241-0.11-0.363
				c0.017-0.142,0.08-0.244,0.183-0.325c0.108-0.084,0.224-0.118,0.354-0.094c0.129,0.013,0.235,0.079,0.327,0.197
				c0.093,0.118,0.13,0.238,0.115,0.37c-0.017,0.122-0.078,0.226-0.187,0.31C14.374,63.152,14.259,63.188,14.126,63.178z"/>
			<path fill="#FFFFFF" d="M15.907,65.25c-0.128-0.012-0.244-0.064-0.345-0.176c-0.102-0.109-0.144-0.231-0.138-0.355
				c0.007-0.141,0.061-0.248,0.156-0.336c0.102-0.092,0.215-0.137,0.346-0.121c0.128,0.002,0.24,0.059,0.341,0.17
				s0.148,0.228,0.142,0.359c-0.005,0.125-0.059,0.231-0.159,0.324C16.152,65.203,16.04,65.247,15.907,65.25z"/>
			<path fill="#FFFFFF" d="M17.848,67.179c-0.127,0-0.248-0.045-0.357-0.147c-0.108-0.102-0.161-0.22-0.165-0.344
				c-0.004-0.141,0.041-0.252,0.13-0.348c0.095-0.1,0.203-0.152,0.336-0.146c0.127-0.01,0.243,0.041,0.353,0.143
				c0.109,0.104,0.166,0.215,0.17,0.348c0.004,0.123-0.042,0.235-0.135,0.335C18.089,67.115,17.979,67.166,17.848,67.179z"/>
			<path fill="#FFFFFF" d="M19.935,68.953c-0.128,0.011-0.251-0.024-0.367-0.117c-0.118-0.095-0.179-0.207-0.192-0.33
				c-0.016-0.141,0.021-0.256,0.103-0.357c0.086-0.107,0.19-0.168,0.322-0.174c0.128-0.019,0.247,0.021,0.364,0.115
				s0.181,0.202,0.196,0.334c0.014,0.123-0.022,0.238-0.109,0.344C20.17,68.871,20.065,68.932,19.935,68.953z"/>
			<path fill="#FFFFFF" d="M22.146,70.557c-0.127,0.018-0.253-0.006-0.377-0.092c-0.124-0.084-0.193-0.191-0.216-0.313
				c-0.026-0.14,0.001-0.256,0.074-0.365c0.077-0.113,0.177-0.182,0.309-0.197c0.124-0.027,0.247,0.004,0.37,0.088
				c0.123,0.083,0.197,0.187,0.223,0.316c0.023,0.121-0.005,0.238-0.081,0.352C22.372,70.455,22.273,70.522,22.146,70.557z"/>
			<path fill="#FFFFFF" d="M24.482,71.984c-0.126,0.028-0.253,0.012-0.383-0.063c-0.129-0.074-0.208-0.176-0.24-0.293
				c-0.038-0.139-0.021-0.257,0.045-0.371c0.069-0.119,0.163-0.194,0.292-0.221c0.123-0.038,0.247-0.017,0.377,0.058
				c0.131,0.073,0.211,0.171,0.246,0.299c0.033,0.118,0.016,0.237-0.053,0.357C24.7,71.864,24.606,71.94,24.482,71.984z"/>
			<path fill="#FFFFFF" d="M26.921,73.225c-0.123,0.039-0.25,0.032-0.386-0.031c-0.136-0.064-0.221-0.159-0.263-0.275
				c-0.048-0.133-0.04-0.254,0.017-0.371c0.059-0.125,0.146-0.207,0.273-0.244c0.119-0.047,0.245-0.035,0.381,0.027
				c0.134,0.064,0.224,0.154,0.269,0.279c0.041,0.116,0.033,0.236-0.025,0.359C27.13,73.088,27.043,73.172,26.921,73.225z"/>
			<path fill="#FFFFFF" d="M29.454,74.271c-0.119,0.048-0.247,0.054-0.387,0c-0.141-0.053-0.233-0.142-0.283-0.253
				c-0.059-0.129-0.06-0.251-0.014-0.373c0.049-0.128,0.13-0.219,0.255-0.264c0.114-0.058,0.24-0.057,0.38-0.004
				c0.14,0.055,0.236,0.139,0.29,0.258c0.051,0.113,0.052,0.234,0.003,0.361C29.651,74.118,29.571,74.209,29.454,74.271z"/>
			<path fill="#FFFFFF" d="M32.057,75.111c-0.114,0.059-0.242,0.072-0.387,0.031c-0.143-0.043-0.242-0.123-0.302-0.232
				c-0.068-0.123-0.079-0.244-0.042-0.369c0.038-0.132,0.112-0.228,0.231-0.283c0.111-0.065,0.236-0.074,0.381-0.031
				c0.143,0.04,0.244,0.116,0.309,0.232c0.059,0.107,0.07,0.228,0.031,0.359C32.241,74.943,32.169,75.039,32.057,75.111z"/>
			<path fill="#FFFFFF" d="M34.716,75.746c-0.11,0.065-0.236,0.09-0.383,0.059c-0.146-0.029-0.252-0.103-0.32-0.207
				c-0.076-0.117-0.097-0.235-0.07-0.363c0.028-0.135,0.094-0.236,0.209-0.301c0.104-0.074,0.229-0.092,0.377-0.063
				c0.146,0.031,0.253,0.098,0.325,0.208c0.067,0.104,0.089,0.222,0.06,0.357C34.888,75.563,34.821,75.664,34.716,75.746z"/>
			<path fill="#FFFFFF" d="M37.42,76.168c-0.104,0.074-0.229,0.109-0.377,0.091c-0.147-0.019-0.259-0.085-0.335-0.182
				c-0.087-0.112-0.116-0.229-0.099-0.357c0.017-0.138,0.074-0.243,0.184-0.317c0.099-0.082,0.223-0.109,0.371-0.091
				s0.26,0.077,0.342,0.182c0.075,0.098,0.104,0.214,0.087,0.351C37.576,75.974,37.519,76.08,37.42,76.168z"/>
			<path fill="#FFFFFF" d="M40.143,76.379c-0.098,0.083-0.218,0.127-0.368,0.119c-0.149-0.008-0.265-0.063-0.349-0.154
				c-0.095-0.104-0.132-0.219-0.126-0.35c0.006-0.137,0.055-0.247,0.159-0.33c0.093-0.088,0.213-0.127,0.362-0.119
				s0.265,0.057,0.354,0.155c0.084,0.093,0.122,0.206,0.116,0.343C40.284,76.174,40.234,76.283,40.143,76.379z"/>
		</g>
	</g>
	<g>
		<g>
			<g>
				<path fill="#FFFFFF" d="M38.889,42.413l-0.147-8.133c-0.01-0.534-0.103-0.917-0.28-1.152c-0.177-0.234-0.425-0.382-0.743-0.444
					c-0.319-0.063-0.844-0.128-1.574-0.198l-0.011-0.587l7.801,0.132l0.011,0.587c-0.612,0.025-1.072,0.069-1.377,0.131
					c-0.307,0.063-0.539,0.202-0.7,0.42c-0.161,0.218-0.237,0.568-0.228,1.052l0.152,8.474c0.014,0.784,0.217,1.463,0.607,2.043
					c0.389,0.578,0.937,1.021,1.639,1.324c0.703,0.303,1.52,0.463,2.447,0.479c0.975,0.016,1.824-0.137,2.551-0.458
					c0.728-0.322,1.291-0.817,1.693-1.487c0.402-0.668,0.594-1.479,0.577-2.433l-0.089-4.921c-0.02-1.11-0.125-1.983-0.313-2.619
					s-0.491-1.105-0.911-1.408c-0.419-0.302-1.006-0.478-1.758-0.526l-0.011-0.587l5.914,0.1l0.011,0.587
					c-0.673,0.074-1.178,0.286-1.513,0.636s-0.555,0.814-0.659,1.392c-0.104,0.579-0.148,1.294-0.134,2.148l0.101,5.518
					c0.014,0.761-0.126,1.451-0.417,2.068c-0.292,0.617-0.721,1.145-1.289,1.579c-0.566,0.435-1.254,0.759-2.059,0.974
					c-0.805,0.213-1.725,0.313-2.761,0.295c-2.47-0.043-4.308-0.717-5.511-2.025c-0.369-0.418-0.628-0.857-0.778-1.314
					C38.98,43.603,38.899,43.054,38.889,42.413z M40.028,42.497l-0.154-8.528c-0.019-1.053-0.572-1.536-1.659-1.447
					c0.587,0.223,0.888,0.741,0.902,1.552l0.154,8.517c0.022,1.216,0.423,2.175,1.202,2.875c0.779,0.7,1.939,1.219,3.479,1.559
					c-0.595-0.246-1.102-0.483-1.52-0.715c-0.418-0.23-0.811-0.516-1.178-0.857c-0.366-0.34-0.659-0.758-0.879-1.252
					C40.156,43.704,40.041,43.137,40.028,42.497z M52.148,32.757l-2.359-0.04c0.712,0.311,1.171,0.881,1.378,1.709
					c0.085-0.404,0.198-0.74,0.344-1.008C51.655,33.151,51.867,32.931,52.148,32.757z"/>
			</g>
			<g>
				<path fill="#FFFFFF" d="M51.929,31.731l-8.831,2.297L42.95,33.46c0.618-0.183,1.072-0.358,1.361-0.525
					c0.289-0.167,0.469-0.385,0.538-0.653c0.068-0.268,0.044-0.629-0.073-1.083l-2.704-10.393c-0.133-0.51-0.4-0.808-0.804-0.895
					c-0.402-0.085-1.008-0.05-1.813,0.109l-0.148-0.568l9.198-2.393c1.195-0.311,2.344-0.414,3.445-0.311
					c1.1,0.104,2.1,0.393,2.996,0.869c0.897,0.477,1.66,1.119,2.29,1.925c0.631,0.807,1.081,1.734,1.354,2.781
					c0.268,1.026,0.313,2.031,0.136,3.014c-0.176,0.984-0.559,1.897-1.147,2.742s-1.366,1.583-2.331,2.216
					C54.283,30.928,53.177,31.407,51.929,31.731z M45.895,30.974l-2.483-9.546c-0.213-0.819-0.444-1.375-0.694-1.667
					c-0.251-0.291-0.718-0.352-1.403-0.181c0.359,0.069,0.617,0.202,0.776,0.4c0.158,0.197,0.297,0.527,0.417,0.988l2.585,9.938
					c0.111,0.427,0.173,0.768,0.183,1.022c0.012,0.254-0.02,0.457-0.091,0.608c-0.072,0.151-0.2,0.298-0.385,0.442
					c0.563-0.147,0.925-0.375,1.082-0.684C46.038,31.986,46.043,31.545,45.895,30.974z M45.298,21.688l2.168,8.337
					c0.156,0.599,0.314,1.023,0.475,1.272c0.16,0.249,0.424,0.397,0.793,0.444c0.369,0.048,0.929-0.026,1.679-0.221
					c0.809-0.21,1.513-0.476,2.11-0.797c0.6-0.321,1.137-0.749,1.615-1.286c0.566-0.632,0.973-1.262,1.221-1.89
					c0.25-0.627,0.374-1.299,0.374-2.016s-0.108-1.489-0.323-2.315c-0.639-2.458-1.894-4.099-3.765-4.921
					c-0.743-0.329-1.517-0.499-2.32-0.51s-1.714,0.115-2.73,0.379c-0.698,0.182-1.166,0.404-1.402,0.668s-0.337,0.581-0.3,0.949
					C44.928,20.149,45.063,20.785,45.298,21.688z M53.218,30.79c0.928-0.337,1.703-0.862,2.325-1.576
					c0.624-0.713,1.032-1.603,1.227-2.668s0.119-2.259-0.225-3.582c-0.247-0.95-0.578-1.791-0.994-2.521
					c-0.415-0.73-0.904-1.336-1.466-1.819c-0.562-0.482-1.181-0.823-1.859-1.021c-0.396-0.125-0.796-0.194-1.195-0.208
					c-0.399-0.014-0.829-0.002-1.286,0.037c3.113,0.3,5.134,2.231,6.06,5.792c0.278,1.067,0.374,2.054,0.288,2.958
					c-0.085,0.905-0.369,1.742-0.851,2.51C54.759,29.461,54.085,30.16,53.218,30.79z"/>
			</g>
			<g>
				<path fill="#FFFFFF" d="M33.028,23.479l0.971,4.596c0.106,0.508,0.229,0.896,0.369,1.166c0.139,0.269,0.328,0.455,0.569,0.556
					c0.24,0.101,0.563,0.137,0.968,0.107c0.405-0.029,0.951-0.101,1.641-0.212c0.833-0.136,1.557-0.374,2.17-0.715
					c0.613-0.341,1.165-0.787,1.656-1.338c0.49-0.552,1.004-1.263,1.54-2.136l0.909-0.147l-0.622,4.012l-13.982,2.272l-0.12-0.574
					c0.67-0.124,1.172-0.261,1.504-0.412s0.549-0.349,0.65-0.592c0.102-0.243,0.109-0.566,0.024-0.97l-2.181-10.33
					c-0.104-0.487-0.246-0.832-0.43-1.032c-0.183-0.201-0.445-0.315-0.789-0.342c-0.342-0.027-0.893,0.003-1.648,0.09l-0.121-0.574
					l13.425-2.182l2.078,3.108l-0.818,0.133c-0.546-0.437-1.18-0.812-1.899-1.124c-0.719-0.311-1.498-0.528-2.334-0.651
					c-0.837-0.124-1.69-0.114-2.562,0.027c-0.688,0.112-1.193,0.264-1.513,0.457c-0.32,0.192-0.511,0.42-0.573,0.682
					c-0.062,0.262-0.051,0.592,0.032,0.989l0.962,4.554l2.283-0.371c1.991-0.324,2.821-1.326,2.49-3.009l0.795-0.129l1.168,5.536
					l-0.704,0.114c-0.27-0.834-0.66-1.41-1.169-1.727c-0.51-0.317-1.204-0.404-2.082-0.261L33.028,23.479z M29.487,18.783
					l2.132,10.1c0.107,0.509,0.121,0.892,0.042,1.149c-0.077,0.258-0.229,0.488-0.453,0.69c0.628-0.109,1.003-0.327,1.125-0.653
					c0.123-0.326,0.115-0.819-0.024-1.481l-2.135-10.111c-0.124-0.591-0.317-0.965-0.577-1.121s-0.672-0.195-1.234-0.118
					c0.309,0.094,0.547,0.248,0.715,0.461C29.243,17.913,29.38,18.274,29.487,18.783z M38.339,23.317l-0.432-2.046
					c-0.197,0.514-0.663,0.943-1.397,1.285c0.438,0.037,0.794,0.109,1.067,0.216C37.851,22.878,38.104,23.061,38.339,23.317z
					 M38.585,15.467l-2.057,0.334c0.605,0.082,1.153,0.208,1.645,0.381c0.49,0.172,1.018,0.389,1.582,0.65L38.585,15.467z
					 M41.942,28.977l0.4-1.945c-0.354,0.519-0.688,0.917-1.005,1.195c-0.318,0.278-0.774,0.635-1.372,1.071L41.942,28.977z"/>
			</g>
			<g>
				<path fill="#FFFFFF" d="M33.229,53.088c2.027-1.256,4.791-2.314,7.251-1.85c0.952,0.093,1.868,0.303,2.778,0.589
					c0.502,0.163,1.545,0.741,1.927,0.319c2.761-3.043,6.224-3.79,10.107-3.95c-1.416-2.663-1.376-2.694-2.914-5.289
					c1.038,2.411,0.583,2.214,1.72,4.579c-3.382,0.037-6.53,0.824-9.094,3.133c-1.952-3.753,0,0-1.952-3.753l0.699,3.825
					c-3.344-0.986-6.811-1.177-9.971,0.562c-1.765-3.458-3.546-6.903-5.358-10.342c2.545-2.319,7.127-1.686,10.191-1.301
					c-2.116-0.51-4.788-1.303-6.991-0.754c-1.491,0.302-3.039,0.667-4.198,1.722c-0.362,0.328,1.547,3.69,1.812,4.25
					C30.536,47.596,31.895,50.336,33.229,53.088z"/>
				<path fill="#FFFFFF" d="M39.264,54.626c1.636,0.038,3.394,0.345,4.924,0.938c0.278,0.11,1.633,0.787,1.825,0.568
					c3.531-3.988,8.219-5.133,13.293-5.219c-1.867-3.421-3.723-6.848-5.711-10.198c1.363,3.147,2.832,6.247,4.303,9.347
					c-4.574-0.042-9.049,1.234-12.317,4.625c-4.614-1.701-9.919-2.068-14.258,0.572c-2.47-4.667-4.907-9.354-7.55-13.926
					c2.219,5.254,4.682,10.4,7.088,15.568C33.426,55.254,36.235,54.617,39.264,54.626z"/>
				<path fill="#FFFFFF" d="M56.389,41.131c1.746,3.91,3.604,7.766,5.46,11.623c-5.704-0.055-11.222,1.516-15.298,5.789
					c-5.703-2.139-12.267-2.609-17.661,0.703c-3.038-5.807-6.045-11.637-9.255-17.351c2.787,6.394,5.815,12.685,8.795,18.991
					c3.261-2.129,7.174-3.055,11.054-2.745c0.884,0.071,1.752,0.212,2.619,0.396c1.503,0.248,2.879,1.096,4.348,1.346
					c0.735,0.125,0.709-0.174,1.312-0.767c0.702-0.694,1.472-1.321,2.276-1.894c1.676-1.186,3.504-2.044,5.443-2.693
					c2.553-0.854,5.114-0.894,7.774-0.924C61.002,49.426,58.761,45.242,56.389,41.131z"/>
			</g>
		</g>
		<g>
			<path fill="#FFFFFF" d="M33.574,65.26v-0.217c0.528-0.217,0.905-0.377,1.131-0.481c0.104-0.048,0.236-0.12,0.394-0.217
				l0.118,0.089c-0.062,0.795-0.093,1.785-0.093,2.971c0,1.021,0.002,1.603,0.008,1.742c0.005,0.272,0.026,0.445,0.064,0.518
				c0.019,0.035,0.045,0.062,0.08,0.08c0.013,0.006,0.221,0.062,0.622,0.168v0.225c-0.551-0.029-0.954-0.043-1.208-0.043
				c-0.295,0-0.636,0.014-1.023,0.043v-0.225c0.391-0.102,0.604-0.162,0.642-0.184c0.038-0.021,0.065-0.05,0.085-0.084
				c0.023-0.049,0.041-0.222,0.052-0.519c0.003-0.102,0.004-0.638,0.004-1.606l-0.004-1.605l-0.009-0.377
				c-0.002-0.152-0.021-0.253-0.06-0.301c-0.038-0.049-0.098-0.072-0.181-0.072C34.105,65.164,33.898,65.195,33.574,65.26z"/>
			<path fill="#FFFFFF" d="M37.629,70.29l-0.076-0.325c0.433-0.16,0.811-0.367,1.134-0.618c0.322-0.251,0.596-0.56,0.82-0.923
				c0.161-0.26,0.302-0.599,0.422-1.016c-0.3,0.291-0.546,0.488-0.738,0.592c-0.193,0.104-0.381,0.154-0.563,0.154
				c-0.396,0-0.74-0.158-1.031-0.474c-0.292-0.315-0.438-0.739-0.438-1.272c0-0.61,0.182-1.106,0.546-1.489s0.809-0.574,1.333-0.574
				c0.514,0,0.932,0.175,1.254,0.524s0.483,0.861,0.483,1.535c0,0.546-0.12,1.094-0.358,1.646c-0.24,0.551-0.582,1.004-1.026,1.357
				C38.946,69.764,38.359,70.057,37.629,70.29z M37.869,65.975c0,0.533,0.11,0.932,0.329,1.196s0.483,0.397,0.793,0.397
				c0.27,0,0.508-0.111,0.714-0.335s0.309-0.519,0.309-0.886c0-0.455-0.109-0.847-0.327-1.176s-0.496-0.494-0.836-0.494
				c-0.267,0-0.497,0.113-0.691,0.338C37.966,65.24,37.869,65.561,37.869,65.975z"/>
			<path fill="#FFFFFF" d="M41.819,70.29l-0.076-0.325c0.434-0.16,0.812-0.367,1.134-0.618c0.323-0.251,0.597-0.56,0.821-0.923
				c0.16-0.26,0.301-0.599,0.422-1.016c-0.3,0.291-0.547,0.488-0.738,0.592c-0.193,0.104-0.381,0.154-0.563,0.154
				c-0.396,0-0.739-0.158-1.031-0.474s-0.438-0.739-0.438-1.272c0-0.61,0.183-1.106,0.546-1.489s0.809-0.574,1.332-0.574
				c0.515,0,0.933,0.175,1.256,0.524c0.321,0.35,0.483,0.861,0.483,1.535c0,0.546-0.12,1.094-0.359,1.646
				c-0.239,0.551-0.582,1.004-1.025,1.357C43.138,69.764,42.55,70.057,41.819,70.29z M42.061,65.975
				c0,0.533,0.109,0.932,0.328,1.196c0.22,0.265,0.483,0.397,0.793,0.397c0.271,0,0.508-0.111,0.714-0.335
				c0.205-0.224,0.309-0.519,0.309-0.886c0-0.455-0.109-0.847-0.326-1.176c-0.219-0.329-0.496-0.494-0.836-0.494
				c-0.268,0-0.498,0.113-0.691,0.338S42.061,65.561,42.061,65.975z"/>
			<path fill="#FFFFFF" d="M48.8,64.324l0.093,0.318c-0.497,0.208-0.903,0.436-1.216,0.68c-0.314,0.245-0.568,0.525-0.764,0.842
				c-0.134,0.213-0.254,0.506-0.36,0.879c0.405-0.309,0.671-0.49,0.792-0.549c0.121-0.057,0.262-0.086,0.42-0.086
				c0.443,0,0.808,0.154,1.09,0.464s0.424,0.729,0.424,1.259c0,0.529-0.164,1.017-0.49,1.461c-0.326,0.443-0.785,0.666-1.373,0.666
				c-0.506,0-0.93-0.192-1.271-0.578c-0.344-0.385-0.515-0.914-0.515-1.586c0-0.781,0.229-1.498,0.69-2.151
				C46.839,65.204,47.665,64.664,48.8,64.324z M48.588,68.518c0-0.177-0.04-0.398-0.119-0.667s-0.206-0.481-0.383-0.64
				s-0.382-0.236-0.614-0.236c-0.188,0-0.367,0.053-0.536,0.16c-0.17,0.107-0.292,0.238-0.368,0.395
				c-0.074,0.155-0.111,0.355-0.111,0.603c0,0.579,0.136,1.042,0.409,1.392c0.212,0.268,0.456,0.401,0.735,0.401
				c0.323,0,0.568-0.14,0.736-0.418C48.504,69.229,48.588,68.898,48.588,68.518z"/>
		</g>
	</g>
</g>
</svg>
